<?xml version="1.0" encoding="UTF-8"?> <svg xmlns="http://www.w3.org/2000/svg" xmlns:xlink="http://www.w3.org/1999/xlink" id="Layer_2" data-name="Layer 2" viewBox="0 0 1572.57 1512.69"><defs><style> .cls-1 { fill: url(#linear-gradient); } </style><linearGradient id="linear-gradient" x1="670.78" y1="1259.69" x2="1307.08" y2="-141.99" gradientUnits="userSpaceOnUse"><stop offset=".02" stop-color="#f9cb89"></stop><stop offset=".26" stop-color="#9b8e7a"></stop><stop offset=".62" stop-color="#f7f1e5"></stop><stop offset="1" stop-color="#facf92"></stop></linearGradient></defs><g id="Layer_1-2" data-name="Layer 1"><path class="cls-1" d="M261.81,1235.49l7.48,97.25-2.2.43c-14.52-49.28-35.2-94.6-96.36-94.6h-3.52v219.56c0,38.28,13.19,46.64,43.99,46.64v2.64H57.65v-2.64c30.8,0,44-8.36,44-46.64v-219.56h-3.53c-60.72,0-81.4,45.32-96.36,94.6l-1.76-.43,7.04-97.25h254.77ZM431.65,1504.33h-34.76v-131.12h11.88c50.16,0,72.16,26.4,80.08,63.36h2.21v-130.24h-2.21c-7.91,36.96-29.92,63.8-80.08,63.8h-11.88v-131.56h31.69c66.87,0,95.48,35.64,106.92,86.24l1.76-.44-6.16-88.88h-237.17v2.64c30.8,0,37.4,9.68,37.4,43.12v180.4c0,33.45-6.6,43.12-37.4,43.12v2.64h239.81l8.36-95.04-2.2-.44c-13.2,45.76-37.4,92.4-108.24,92.4ZM920.93,1450.66l-7.92-157.96c-1.32-33.88,3.96-54.56,37.4-54.56v-2.64h-92.84l-77.88,183.92-88.44-183.92h-111.33v2.64c45.77,0,55.88,25.96,52.37,74.36l-5.28,68.2c-6.6,101.64-19.36,124.09-66,124.09v2.64h116.16v-2.64c-45.76,0-53.24-22-46.2-124.09l7.91-99.44,108.24,220.44h1.76l96.8-227.93,10.12,179.96c1.76,33.44-5.28,51.05-36.97,51.05v2.64h143.89v-2.64c-32.56,0-39.61-17.16-41.8-54.12ZM1125.97,1235.49h-144.32v2.64c30.8,0,37.4,9.68,37.4,43.12v180.4c0,33.45-6.6,43.12-37.4,43.12v2.64h140.36v-2.64c-30.8,0-37.4-9.68-37.4-43.12v-223.08h27.28c47.52,0,61.16,40.48,61.16,76.56s-13.64,75.25-61.16,75.25h-9.24v3.08h23.32c85.36,0,117.04-35.2,117.04-78.32s-31.69-79.64-117.04-79.64ZM1572.57,1371.45c0,82.28-64.68,141.24-151.8,141.24s-151.8-58.96-151.8-141.24,64.24-141.24,151.8-141.24,151.8,58.96,151.8,141.24ZM1501.73,1371.45c0-69.52-17.16-137.72-80.96-137.72s-81.4,69.09-81.4,137.72,17.6,137.72,81.4,137.72,80.96-68.2,80.96-137.72ZM924.56,552.05h-275.88c-43.03,0-77.91,34.88-77.91,77.91v214.74c17.7-48.99,47.78-76.91,132.36-76.91h243.43c59.13,0,107.06-47.93,107.06-107.06l.15-254.34c0-62.82,50.92-113.75,113.75-113.75h275.52c43.03,0,77.91-34.88,77.91-77.91V0c-17.7,48.99-47.78,76.91-132.36,76.91h-243.42c-59.13,0-107.07,47.93-107.07,107.06v254.44s0,0,0,0c0,62.7-50.82,113.53-113.52,113.53v.11ZM405.76,775.4H129.88c-43.03,0-77.9,34.88-77.9,77.91v214.74c17.69-48.99,47.77-76.91,132.35-76.91h243.43c59.13,0,107.06-47.93,107.06-107.06l.15-254.34c0-62.82,50.92-113.75,113.75-113.75h275.52c43.03,0,77.91-34.88,77.91-77.91v-214.74c-17.7,48.99-47.78,76.91-132.36,76.91h-243.42c-59.13,0-107.06,47.93-107.06,107.06v254.44h-.02c0,62.7-50.82,113.53-113.52,113.53v.11ZM1440.17,328.5h-272.66c-43.05,0-77.94,34.89-77.94,77.93v214.81c17.7-49.01,47.79-76.93,132.4-76.93h243.5c59.15,0,107.1-47.95,107.1-107.1v-185.63c-17.7,49-47.79,76.92-132.4,76.92ZM132.4,739.43h272.66c43.05,0,77.94-34.89,77.94-77.93v-214.81c-17.7,49.01-47.79,76.93-132.4,76.93H107.1C47.95,523.62,0,571.57,0,630.72v185.63c17.7-49,47.79-76.92,132.4-76.92ZM1053.61,941.85v-214.73c-17.69,48.99-47.77,76.9-132.35,76.9h-243.42c-59.14,0-107.07,47.93-107.07,107.06v185.59c17.69-48.99,47.77-76.91,132.36-76.91h272.58c43.03,0,77.9-34.88,77.9-77.91Z"></path></g></svg> 