<?xml version="1.0" encoding="UTF-8"?> <svg xmlns="http://www.w3.org/2000/svg" width="38" height="38" viewBox="0 0 38 38" fill="none"><circle opacity="0.3" cx="18.75" cy="19.25" r="18.3333" stroke="#A2A9AA" stroke-width="0.833333"></circle><g clip-path="url(#clip0_10223_1613)"><path d="M24.609 12.0732H12.8777C12.1575 12.0732 11.5742 12.6565 11.5742 13.3767V25.108C11.5742 25.8282 12.1575 26.4115 12.8777 26.4115H19.3951V20.5458H17.4399V18.5906H19.3951V17.5407C19.3951 15.5529 20.3636 14.6802 22.0157 14.6802C22.8069 14.6802 23.2253 14.7389 23.4235 14.7656V16.6354H22.2966C21.5953 16.6354 21.3503 17.0056 21.3503 17.7551V18.5906H23.4059L23.1269 20.5458H21.3503V26.4115H24.609C25.3291 26.4115 25.9125 25.8282 25.9125 25.108V13.3767C25.9125 12.6565 25.3285 12.0732 24.609 12.0732Z" fill="#D6E0E1"></path></g><defs><clipPath id="clip0_10223_1613"><rect x="11.5723" y="12.0723" width="14.3382" height="14.3382" rx="2.93383" fill="white"></rect></clipPath></defs></svg> 