<?xml version="1.0" encoding="UTF-8"?> <svg xmlns="http://www.w3.org/2000/svg" width="38" height="38" viewBox="0 0 38 38" fill="none"><circle opacity="0.3" cx="18.75" cy="19.25" r="18.3333" stroke="#A2A9AA" stroke-width="0.833333"></circle><g clip-path="url(#clip0_10223_1623)"><path d="M23.9688 13.332H14.3421C13.5118 13.332 12.8379 14.0059 12.8379 14.8362V24.4629C12.8379 25.2932 13.5118 25.9671 14.3421 25.9671H23.9688C24.7991 25.9671 25.4729 25.2932 25.4729 24.4629V14.8362C25.4729 14.0059 24.7991 13.332 23.9688 13.332ZM16.7487 18.1454V23.8612H14.9437V18.1454H16.7487ZM14.9437 16.4818C14.9437 16.0606 15.3047 15.7387 15.8462 15.7387C16.3877 15.7387 16.7277 16.0606 16.7487 16.4818C16.7487 16.9029 16.4118 17.2429 15.8462 17.2429C15.3047 17.2429 14.9437 16.9029 14.9437 16.4818ZM23.3671 23.8612H21.5621C21.5621 23.8612 21.5621 21.0755 21.5621 20.8529C21.5621 20.2512 21.2612 19.6495 20.5092 19.6375H20.4851C19.7571 19.6375 19.4562 20.2572 19.4562 20.8529C19.4562 21.1266 19.4562 23.8612 19.4562 23.8612H17.6512V18.1454H19.4562V18.9155C19.4562 18.9155 20.0369 18.1454 21.2041 18.1454C22.3984 18.1454 23.3671 18.9667 23.3671 20.6303V23.8612Z" fill="#D6E0E1"></path></g><defs><clipPath id="clip0_10223_1623"><rect x="12.0059" y="12.4971" width="14.25" height="14.25" rx="2.93266" fill="white"></rect></clipPath></defs></svg> 