<?xml version="1.0" encoding="UTF-8"?> <svg xmlns="http://www.w3.org/2000/svg" width="39" height="38" viewBox="0 0 39 38" fill="none"><circle opacity="0.3" cx="19.418" cy="19.25" r="18.3333" stroke="#A2A9AA" stroke-width="0.833333"></circle><path d="M16.4804 12.0859C14.144 12.0859 12.2441 13.9858 12.2441 16.3222V22.1879C12.2441 24.5244 14.144 26.4242 16.4804 26.4242H22.3461C24.6826 26.4242 26.5824 24.5244 26.5824 22.1879V16.3222C26.5824 13.9858 24.6826 12.0859 22.3461 12.0859H16.4804ZM23.3237 14.6929C23.6821 14.6929 23.9754 14.9862 23.9754 15.3446C23.9754 15.7031 23.6821 15.9964 23.3237 15.9964C22.9652 15.9964 22.6719 15.7031 22.6719 15.3446C22.6719 14.9862 22.9652 14.6929 23.3237 14.6929ZM19.4133 15.6705C21.3913 15.6705 22.9978 17.277 22.9978 19.2551C22.9978 21.2331 21.3913 22.8396 19.4133 22.8396C17.4352 22.8396 15.8287 21.2331 15.8287 19.2551C15.8287 17.277 17.4352 15.6705 19.4133 15.6705Z" fill="#D6E0E1"></path><circle cx="19.4152" cy="19.258" r="2.29412" fill="#D6E0E1"></circle></svg> 