<?xml version="1.0" encoding="UTF-8"?> <svg xmlns="http://www.w3.org/2000/svg" width="39" height="38" viewBox="0 0 39 38" fill="none"><circle opacity="0.3" cx="19.418" cy="19.25" r="18.3333" stroke="#A2A9AA" stroke-width="0.833333"></circle><path d="M24.0299 14.8034C23.9356 14.7537 23.8438 14.6992 23.7548 14.6402C23.496 14.4657 23.2588 14.2602 23.0482 14.028C22.5212 13.4132 22.3244 12.7895 22.2519 12.3528H22.2548C22.1943 11.9904 22.2193 11.7559 22.2231 11.7559H19.823V21.2192C19.823 21.3462 19.823 21.4718 19.8177 21.5959C19.8177 21.6113 19.8163 21.6256 19.8154 21.6422C19.8154 21.649 19.8154 21.6561 19.8139 21.6633C19.8139 21.6651 19.8139 21.6668 19.8139 21.6686C19.7886 22.0082 19.6819 22.3362 19.5031 22.6238C19.3243 22.9114 19.0789 23.1498 18.7886 23.318C18.4859 23.4935 18.1437 23.5856 17.7955 23.5851C16.6772 23.5851 15.7709 22.6554 15.7709 21.5071C15.7709 20.3589 16.6772 19.4291 17.7955 19.4291C18.0072 19.4289 18.2175 19.4629 18.4188 19.5297L18.4217 17.0379C17.8107 16.9574 17.19 17.0069 16.5987 17.1833C16.0074 17.3597 15.4584 17.6591 14.9863 18.0627C14.5726 18.4292 14.2248 18.8665 13.9586 19.3549C13.8573 19.533 13.475 20.2487 13.4287 21.4103C13.3996 22.0697 13.5938 22.7527 13.6864 23.0351V23.041C13.7446 23.2072 13.9702 23.7745 14.3379 24.2528C14.6345 24.6364 14.9848 24.9734 15.3776 25.2529V25.247L15.3834 25.2529C16.5453 26.058 17.8336 26.0051 17.8336 26.0051C18.0566 25.9959 18.8037 26.0051 19.6521 25.5952C20.593 25.1407 21.1287 24.4636 21.1287 24.4636C21.4709 24.059 21.7431 23.5979 21.9334 23.1001C22.1506 22.5179 22.2231 21.8197 22.2231 21.5407V16.5202C22.2522 16.538 22.64 16.7995 22.64 16.7995C22.64 16.7995 23.1987 17.1647 24.0704 17.4024C24.6957 17.5716 25.5383 17.6073 25.5383 17.6073V15.1778C25.2431 15.2104 24.6436 15.1154 24.0299 14.8034Z" fill="#D6E0E1"></path></svg> 