<?xml version="1.0" encoding="UTF-8"?> <svg xmlns="http://www.w3.org/2000/svg" width="38" height="38" viewBox="0 0 38 38" fill="none"><circle opacity="0.3" cx="19.084" cy="19.25" r="18.3333" stroke="#A2A9AA" stroke-width="0.833333"></circle><path d="M18.668 12.166C14.5326 12.166 11.168 15.5306 11.168 19.666C11.168 20.9573 11.5016 22.2271 12.1342 23.3475L11.1801 26.7519C11.1488 26.8637 11.1791 26.9837 11.26 27.0669C11.3223 27.1311 11.407 27.166 11.4941 27.166C11.5202 27.166 11.5466 27.1628 11.5724 27.1566L15.1254 26.2765C16.2103 26.8588 17.4321 27.166 18.668 27.166C22.8035 27.166 26.168 23.8015 26.168 19.666C26.168 15.5306 22.8035 12.166 18.668 12.166ZM22.4408 22.3125C22.2804 22.7567 21.5108 23.162 21.1411 23.2165C20.8091 23.265 20.3891 23.2859 19.928 23.1411C19.6486 23.0531 19.2899 22.9363 18.8304 22.7404C16.899 21.9167 15.6377 19.9963 15.5412 19.8695C15.445 19.7426 14.755 18.8387 14.755 17.9032C14.755 16.9676 15.2523 16.5075 15.429 16.3171C15.6057 16.1267 15.8141 16.0791 15.9426 16.0791C16.0711 16.0791 16.1992 16.0807 16.3117 16.0859C16.4301 16.0918 16.5889 16.0412 16.7451 16.4123C16.9055 16.7932 17.2906 17.7287 17.3382 17.8243C17.3865 17.9195 17.4185 18.0307 17.3545 18.1575C17.2906 18.2844 17.2587 18.3636 17.1621 18.4748C17.0656 18.586 16.96 18.7226 16.8732 18.8081C16.7767 18.903 16.6766 19.0057 16.7888 19.1961C16.901 19.3866 17.2874 20.0091 17.86 20.5132C18.5953 21.1608 19.2158 21.3617 19.4082 21.4569C19.6006 21.5521 19.7131 21.5361 19.8253 21.4093C19.9375 21.2821 20.3066 20.854 20.4348 20.6638C20.5629 20.4737 20.6914 20.505 20.8681 20.5686C21.0449 20.6319 21.9915 21.0917 22.1839 21.1869C22.3763 21.2821 22.5048 21.3297 22.553 21.409C22.6013 21.4879 22.6013 21.8687 22.4408 22.3125Z" fill="#D6E0E1"></path></svg> 