<?xml version="1.0" encoding="UTF-8"?> <svg xmlns="http://www.w3.org/2000/svg" width="38" height="38" viewBox="0 0 38 38" fill="none"><circle opacity="0.3" cx="19.084" cy="19.25" r="18.3333" stroke="#A2A9AA" stroke-width="0.833333"></circle><path d="M27.5398 15.0112C27.3364 14.2514 26.7393 13.6544 25.9796 13.451C24.604 13.082 19.0852 13.082 19.0852 13.082C19.0852 13.082 13.5665 13.082 12.1909 13.451C11.4311 13.6544 10.8341 14.2514 10.6307 15.0112C10.2617 16.3869 10.2617 19.2588 10.2617 19.2588C10.2617 19.2588 10.2617 22.1307 10.6307 23.5064C10.8341 24.2662 11.4311 24.8632 12.1909 25.0665C13.5665 25.4355 19.0852 25.4355 19.0852 25.4355C19.0852 25.4355 24.604 25.4355 25.9796 25.0665C26.7393 24.8632 27.3364 24.2662 27.5398 23.5064C27.9088 22.1307 27.9088 19.2588 27.9088 19.2588C27.9088 19.2588 27.9073 16.3869 27.5398 15.0112Z" fill="#D6E0E1"></path><path d="M17.3223 21.9058L21.9069 19.2591L17.3223 16.6123V21.9058Z" fill="#282828"></path></svg> 