<?xml version="1.0" encoding="UTF-8"?> <svg xmlns="http://www.w3.org/2000/svg" width="1201" height="985" viewBox="0 0 1201 985" fill="none"><mask id="mask0_10370_1923" style="mask-type:alpha" maskUnits="userSpaceOnUse" x="0" y="1" width="1201" height="984"><mask id="mask1_10370_1923" style="mask-type:alpha" maskUnits="userSpaceOnUse" x="0" y="0" width="1201" height="985"><path d="M0.921875 58.6664C0.921875 26.4497 27.0386 0.333008 59.2552 0.333008H1200.92V926.172C1200.92 958.389 1174.81 984.506 1142.59 984.506H59.2553C27.0387 984.506 0.921875 958.389 0.921875 926.172V58.6664Z" fill="#D9D9D9"></path></mask><g mask="url(#mask1_10370_1923)"><path d="M0.921875 127.526C0.927421 108.027 8.67993 89.3281 22.4744 75.542C36.2688 61.756 54.9758 54.0114 74.4813 54.0114H1110C1168.11 54.0114 1188.77 34.8382 1200.92 1.19629V930.868C1200.92 945.055 1195.27 958.659 1185.24 968.688C1175.2 978.718 1161.59 984.352 1147.4 984.352H91.8411C33.7382 984.352 13.0737 1003.53 0.921875 1037.17L0.921875 127.526Z" fill="black"></path></g></mask><g mask="url(#mask0_10370_1923)"><rect x="0.921875" y="-29.8823" width="1200" height="1014.39" fill="#2C3A3B"></rect></g></svg> 