<?xml version="1.0" encoding="UTF-8"?> <svg xmlns="http://www.w3.org/2000/svg" width="1440" height="1181" viewBox="0 0 1440 1181" fill="none"><mask id="mask0_10528_3764" style="mask-type:alpha" maskUnits="userSpaceOnUse" x="0" y="0" width="1440" height="1180"><mask id="mask1_10528_3764" style="mask-type:alpha" maskUnits="userSpaceOnUse" x="0" y="0" width="1440" height="1182"><path d="M1440 1111.01C1440 1149.67 1408.66 1181.01 1370 1181.01H0V70.0001C0 31.3401 31.3401 0.00012207 70 0.00012207H1370C1408.66 0.00012207 1440 31.3402 1440 70.0001V1111.01Z" fill="#D9D9D9"></path></mask><g mask="url(#mask1_10528_3764)"><path d="M1440 1028.38C1439.99 1051.77 1430.69 1074.21 1414.14 1090.76C1397.58 1107.3 1375.14 1116.59 1351.73 1116.59H109.103C39.3793 1116.59 14.5823 1139.6 8.10623e-05 1179.97V64.3651C0.00673589 47.3409 6.7764 31.0164 18.8206 18.9808C30.8647 6.94524 47.1972 0.184026 64.2269 0.184027H1330.9C1400.62 0.184027 1425.42 -22.8237 1440 -63.194L1440 1028.38Z" fill="black"></path></g></mask><g mask="url(#mask0_10528_3764)"><rect x="1440" y="1217.27" width="1440" height="1217.27" transform="rotate(180 1440 1217.27)" fill="#2C3A3B"></rect></g></svg> 