<?xml version="1.0" encoding="UTF-8"?> <svg xmlns="http://www.w3.org/2000/svg" width="134" height="47" viewBox="0 0 134 47" fill="none"><path d="M68.3703 43.5256C69.6844 43.5256 70.2613 43.173 70.2613 41.5064V32.0833H70.1011C67.5049 32.0833 66.6075 34.0384 65.9665 36.1538L65.9023 36.1217L66.1908 31.9551H77.1523L77.4729 36.1217L77.3767 36.1538C76.7677 34.0384 75.8703 32.0833 73.2421 32.0833H73.0818V41.5064C73.0818 43.141 73.6587 43.5256 74.9728 43.5256V43.6538H68.3703V43.5256Z" fill="#E6F0F2"></path><path d="M78.4987 43.5257C79.8128 43.5257 80.1013 43.1091 80.1013 41.6668V33.9104C80.1013 32.4681 79.8128 32.0514 78.4987 32.0514V31.9232H88.691L88.9474 35.7373L88.8833 35.7693C88.4025 33.5898 87.1525 32.0514 84.3 32.0514H82.9538V37.6924H83.4666C85.6141 37.6924 86.5756 36.5386 86.8961 34.936H86.9923V40.545H86.8961C86.5436 38.9424 85.6141 37.8206 83.4666 37.8206H82.9538V43.4616H84.4602C87.5051 43.4616 88.5308 41.4424 89.1077 39.4873L89.2038 39.5193L88.8513 43.5898H78.5308V43.5257H78.4987Z" fill="#E6F0F2"></path><path d="M90.0052 43.5256C92.0244 43.5256 92.5693 42.564 92.8578 38.2051L93.0821 35.2884C93.2424 33.2051 92.7937 32.0833 90.8385 32.0833V31.9551H95.6142L99.4283 39.8717L102.762 31.9551H106.768V32.0833C105.326 32.0833 105.101 32.9807 105.165 34.423L105.518 41.2179C105.614 42.8205 105.903 43.5576 107.313 43.5576V43.6858H101.127V43.5576C102.473 43.5576 102.794 42.7884 102.73 41.3781L102.281 33.6538L98.1142 43.4615H98.0501L93.4026 33.9743L93.0501 38.2371C92.7616 42.6281 93.0821 43.5576 95.0373 43.5576V43.6858H90.0052V43.5256Z" fill="#E6F0F2"></path><path d="M108.082 43.5257C109.396 43.5257 109.685 43.1091 109.685 41.6668V33.9104C109.685 32.4681 109.396 32.0514 108.082 32.0514V31.9232H114.3C117.954 31.9232 119.332 33.4616 119.332 35.3527C119.332 37.2116 117.986 38.718 114.3 38.718H113.306V38.5898H113.691C115.742 38.5898 116.319 36.8911 116.319 35.3527C116.319 33.8142 115.742 32.0514 113.691 32.0514H112.505V41.6347C112.505 43.077 112.794 43.4937 114.108 43.4937V43.6219H108.082V43.5257Z" fill="#E6F0F2"></path><path d="M120.422 37.7882C120.422 34.2625 123.178 31.7305 126.96 31.7305C130.71 31.7305 133.499 34.2625 133.499 37.7882C133.499 41.3138 130.71 43.8458 126.96 43.8458C123.178 43.8779 120.422 41.3458 120.422 37.7882ZM130.422 37.7882C130.422 34.8074 129.685 31.8587 126.928 31.8587C124.172 31.8587 123.435 34.8394 123.435 37.7882C123.435 40.7689 124.204 43.7176 126.928 43.7176C129.685 43.7176 130.422 40.7689 130.422 37.7882Z" fill="#E6F0F2"></path><path d="M60.7401 13.1094C62.5349 13.1094 64.0093 11.635 64.0093 9.84014V0.83374C63.2721 2.88502 61.99 4.07091 58.4644 4.07091H48.2401C45.7721 4.07091 43.7529 6.09014 43.7529 8.55809V19.2312C43.7529 21.8594 41.6054 24.0068 38.9772 24.0068H27.3747C25.5798 24.0068 24.1055 25.4812 24.1055 27.276V36.2824C24.8426 34.2312 26.1247 33.0453 29.6503 33.0453H39.8747C42.3426 33.0453 44.3619 31.026 44.3619 28.5581V17.885C44.3619 15.2568 46.5093 13.1094 49.1375 13.1094H60.7401Z" fill="#E6F0F2"></path><path d="M38.951 22.468C40.7459 22.468 42.2202 20.9937 42.2202 19.1988V10.1924C41.4831 12.2437 40.201 13.4296 36.6753 13.4296H26.451C23.9831 13.4296 21.9638 15.4488 21.9638 17.9167V28.5898C21.9638 31.218 19.8164 33.3654 17.1882 33.3654H5.58562C3.79075 33.3654 2.31641 34.8398 2.31641 36.6347V45.6411C3.05359 43.5898 4.33563 42.4039 7.86127 42.4039H18.0856C20.5536 42.4039 22.5728 40.3847 22.5728 37.9167V27.2437C22.5728 24.6155 24.7202 22.468 27.3484 22.468H38.951Z" fill="#E6F0F2"></path><path d="M60.6217 14.6146H49.1794C47.3845 14.6146 45.9102 16.089 45.9102 17.8838V26.8903C46.6473 24.839 47.9294 23.6531 51.455 23.6531H61.6794C64.1794 23.6531 66.1665 21.6338 66.1665 19.1659V11.3774C65.4614 13.4287 64.1794 14.6146 60.6217 14.6146Z" fill="#E6F0F2"></path><path d="M5.71283 31.8611H17.1551C18.95 31.8611 20.4244 30.3867 20.4244 28.5919V19.5854C19.6872 21.6367 18.4051 22.8226 14.8795 22.8226H4.65515C2.15515 22.8226 0.167969 24.8419 0.167969 27.3098V35.0983C0.873097 33.047 2.15514 31.8611 5.71283 31.8611Z" fill="#E6F0F2"></path><path d="M38.817 34.5836H28.5926C26.1247 34.5836 24.1055 36.6028 24.1055 39.0708V46.8592C24.8426 44.808 26.1247 43.6221 29.6503 43.6221H41.0926C42.8875 43.6221 44.3619 42.1477 44.3619 40.3528V31.3464C43.6567 33.3977 42.3747 34.5836 38.817 34.5836Z" fill="#E6F0F2"></path></svg> 