<?xml version="1.0" encoding="UTF-8"?> <svg xmlns="http://www.w3.org/2000/svg" width="131" height="117" viewBox="0 0 131 117" fill="none"><path d="M120.273 40.4681C126.166 40.4681 131.006 35.6278 131.006 29.7351V0.166626C128.586 6.90108 124.377 10.7944 112.802 10.7944H79.2351C71.1327 10.7944 64.5035 17.4237 64.5035 25.5261V60.5663C64.5035 69.1948 57.4533 76.2449 48.8248 76.2449H10.733C4.84034 76.2449 0 81.0853 0 86.978V116.546C2.4202 109.812 6.62922 105.919 18.2041 105.919H51.7711C59.8735 105.919 66.5027 99.2894 66.5027 91.187V56.1468C66.5027 47.5183 73.5529 40.4681 82.1814 40.4681H120.273Z" fill="#E6F0F2"></path></svg> 