<?xml version="1.0" encoding="UTF-8"?> <svg xmlns="http://www.w3.org/2000/svg" width="157" height="75" viewBox="0 0 157 75" fill="none"><rect width="156.664" height="75" fill="#1F1F1F"></rect><path fill-rule="evenodd" clip-rule="evenodd" d="M21.5781 26.5046H43.3986V48.0811H21.5781V26.5046Z" fill="#282828"></path><path fill-rule="evenodd" clip-rule="evenodd" d="M50.6555 34.8969V34.5059H51.6794V31.0292H48.943V34.5059H49.9882V34.8969H46.2415V34.5059H47.1968V27.4275H46.2415V27.0392H49.9882V27.4275H48.943V30.5574H51.6794V27.4275H50.6555V27.0392H54.3795V27.4275H53.4106V34.5059H54.3795V34.8969H50.6555ZM55.9114 27.0372H57.6116V27.9711H55.9114V27.0372ZM55.0765 34.8969V34.5195H55.9891V29.6306H55.0765V29.2422H57.6776V34.5189H58.5481V34.8962L55.0765 34.8969ZM58.9144 34.8969V34.5059H59.8613V27.3951H58.9144V27.0288H61.5654V34.5059H62.4559V34.8969H58.9144ZM65.114 34.8969C64.3348 34.8969 63.6895 34.5428 63.6895 33.6853V29.6183H62.7653V29.2422H63.6895V27.0579H65.281V29.2422H66.5961V29.6183H65.281V34.5215H66.6174V34.8969H65.114ZM70.0282 29.4532C71.4864 29.4532 71.3517 30.9373 71.3634 31.9618V32.3197C71.375 33.2905 71.3517 34.7292 70.0386 34.7292C69.5506 34.7292 69.1603 34.528 68.9157 34.1053C68.6594 33.6471 68.682 32.5223 68.682 32.0194C68.682 31.0143 68.6367 29.4532 70.0282 29.4532ZM73.2047 32.1851C73.2047 30.3457 71.843 29.0895 70.0379 29.0895C68.3138 29.0895 66.8006 30.2228 66.8006 32.0427C66.8006 33.9273 68.2918 35.0515 70.0852 35.0515C71.7892 35.0515 73.2047 33.9468 73.2047 32.1851ZM77.8082 34.8969V34.5215H78.5642V31.0803C78.5642 30.4564 78.5642 29.6908 77.739 29.6908C77.095 29.6908 76.4815 30.3244 76.3261 30.914C76.2601 31.1923 76.2711 31.4939 76.2711 31.7709V34.5221H77.1397V34.8975H73.6694V34.5221H74.58V29.6344H73.6694V29.2435H76.2711V30.1121C76.6174 29.7005 76.8497 29.4772 77.3507 29.2772C77.6749 29.1406 78.0227 29.0689 78.3745 29.0662C78.6302 29.0662 78.8981 29.1102 79.1441 29.1756C80.067 29.4442 80.2903 30.0441 80.2903 30.9133V34.5215H81.1828V34.8969H77.8082ZM55.3043 42.9681V45.8514C54.0746 47.2856 52.8281 47.8875 50.893 47.8875C47.5165 47.8875 45.8047 45.3932 45.8047 42.2523C45.8047 40.4117 46.2966 38.7904 47.7217 37.5459C48.7203 36.6631 50.0063 36.2657 51.3221 36.2657C52.2269 36.2657 52.9401 36.5356 53.6954 36.9802L54.4216 36.4417H54.8144V39.5619H54.153C53.8546 37.828 53.4909 36.8365 51.48 36.8365C50.2277 36.8365 49.2912 37.3575 48.9443 38.5859C48.6239 39.6409 48.578 40.8362 48.578 41.9378C48.578 42.9992 48.6246 44.0858 48.7999 45.1434C48.9909 46.4352 49.5611 47.395 51.0199 47.395C51.6386 47.395 52.0515 47.316 52.4793 46.8442C52.7492 46.529 52.8443 46.3232 52.8443 45.9129V42.9681H51.1629V42.317H56.3496V42.9681H55.3043ZM61.6463 43.4302V44.9039C61.6463 45.4883 61.5822 45.9951 61.1052 46.3905C60.8683 46.5808 60.5654 46.707 60.2632 46.707C59.4225 46.707 58.9449 46.0902 58.9449 45.2974C58.9455 43.6995 60.3752 43.5092 61.6463 43.4302ZM65.2065 47.6707V47.1335H63.9244V41.8802C63.9244 40.8188 63.672 40.2182 62.643 39.7735C62.0553 39.5172 61.344 39.4202 60.7273 39.4202C59.4872 39.4202 57.3482 39.9483 57.3482 41.5158C57.3482 42.1332 57.8077 42.5759 58.4258 42.5759C59.0426 42.5759 59.5183 42.1164 59.5183 41.5016C59.5183 41.0563 59.1371 40.7722 59.1371 40.4719C59.1371 40.0428 60.0108 39.9172 60.2969 39.9172C61.4236 39.9172 61.6469 40.3605 61.6469 41.3728V42.893C60.3914 43.0199 58.8355 43.161 57.7915 43.9383C57.1443 44.412 56.6861 45.1097 56.6861 45.9485C56.6861 47.2772 57.7139 47.8739 58.9461 47.8739C60.0749 47.8739 60.9797 47.3866 61.7097 46.551C61.7887 46.7394 61.8676 46.929 61.977 47.0869C62.3899 47.639 63.307 47.6707 63.9251 47.6707H65.2065ZM72.1167 42.2756C71.4682 42.2756 70.8987 41.8329 70.8987 41.1534C70.8987 40.6473 71.2307 40.3774 71.2307 40.2512C71.2307 40.1237 71.0721 40.0609 70.9608 40.0609C70.7084 40.0609 70.2172 40.6803 70.0897 40.8518C69.5189 41.5812 69.3137 42.5759 69.3137 43.4943V47.1167H70.9136V47.6707H65.5955V47.1167H66.8925V40.1877H65.5955V39.6363H69.3292V41.0893C69.9318 40.1392 70.4851 39.3833 71.7206 39.3833C72.6694 39.3833 73.3975 39.9968 73.3975 40.9793C73.3982 41.7527 72.8908 42.2756 72.1167 42.2756ZM78.1228 40.0712C78.8205 40.0712 79.4398 40.6388 79.7434 41.2233C80.0922 41.9022 80.0922 42.9597 80.0922 43.7176C80.0922 44.2865 80.0747 45.234 79.8547 45.7848C79.568 46.4643 78.8852 47.2552 78.0898 47.2552C76.5002 47.2552 76.4206 44.7602 76.4206 43.6373C76.4213 42.486 76.4705 40.0712 78.1228 40.0712ZM83.7179 47.6513V47.1128H82.4513V36.3136H78.7434V36.8488H80.0126V40.6725C79.3466 39.8635 78.6295 39.4195 77.5487 39.4195C77.0096 39.4195 76.4698 39.5787 76.011 39.8156C74.545 40.5922 73.8823 42.1391 73.8823 43.7499C73.8823 46.0229 75.2867 47.8895 77.6445 47.8895C78.8528 47.8895 79.3764 47.3808 80.012 46.4468V47.6506L83.7179 47.6513ZM89.3427 42.5733H86.429C86.4452 41.3087 86.2568 39.8544 87.9823 39.8544C89.0566 39.8544 89.3427 40.5185 89.3427 41.4524V42.5733ZM91.8758 43.128C91.7166 42.1145 91.5587 41.3715 90.8455 40.5968C90.1174 39.8078 89.0417 39.4182 87.9823 39.4182C85.5423 39.4182 83.7437 41.1831 83.7437 43.6205C83.7437 46.1692 85.64 47.8908 88.1415 47.8908C89.9439 47.8908 90.9879 46.9788 91.7794 45.4566L91.3044 45.2191C90.6106 46.3439 89.8152 47.2934 88.3758 47.2934C86.5073 47.2934 86.3824 45.5524 86.3824 44.1266V43.128H91.8758ZM98.1835 47.6707V47.1335H99.2604V42.2491C99.2604 41.3631 99.2604 40.2706 98.0877 40.2706C97.1739 40.2706 96.3014 41.1715 96.0801 42.0096C95.9856 42.4057 95.9992 42.8329 95.9992 43.227V47.1335H97.2353V47.6707H92.3004V47.1335H93.6013V40.191H92.3004V39.637H95.9992V40.8699C96.4923 40.2855 96.8231 39.969 97.535 39.6849C97.996 39.4917 98.4901 39.3898 98.9899 39.3846C99.3536 39.3846 99.7342 39.4473 100.083 39.5412C101.396 39.9224 101.713 40.776 101.713 42.009V47.1329H102.981V47.6701L98.1835 47.6707ZM105.646 47.6707V47.1167H106.975V37.0579H105.646V36.5026H110.825V37.0579H109.495V47.1167H110.825V47.6707H105.646ZM117.256 47.6707V47.1335H118.329V42.2491C118.329 41.3631 118.329 40.2706 117.159 40.2706C116.24 40.2706 115.372 41.1715 115.149 42.0096C115.054 42.4057 115.072 42.8329 115.072 43.227V47.1335H116.305V47.6707H111.372V47.1335H112.67V40.191H111.372V39.637H115.072V40.8699C115.563 40.2855 115.894 39.969 116.605 39.6849C117.066 39.4915 117.561 39.3895 118.061 39.3846C118.424 39.3846 118.804 39.4473 119.152 39.5412C120.468 39.9224 120.783 40.776 120.783 42.009V47.1329H122.05V47.6701L117.256 47.6707ZM128.333 47.6707V47.1335H129.408V42.2491C129.408 41.3631 129.408 40.2706 128.238 40.2706C127.321 40.2706 126.451 41.1715 126.228 42.0096C126.136 42.4057 126.15 42.8329 126.15 43.227V47.1335H127.386V47.6707H122.455V47.1335H123.751V40.191H122.455V39.637H126.15V40.8699C126.639 40.2855 126.972 39.969 127.683 39.6849C128.145 39.4917 128.64 39.3898 129.141 39.3846C129.504 39.3846 129.884 39.4473 130.234 39.5412C131.544 39.9224 131.863 40.776 131.863 42.009V47.1329H133.129V47.6701L128.333 47.6707ZM133.996 42.0381C133.341 42.0381 132.87 41.5695 132.87 40.9145C132.87 40.2661 133.342 39.8001 133.996 39.8001C134.643 39.8001 135.111 40.2661 135.111 40.9145C135.111 41.5695 134.643 42.0381 133.996 42.0381ZM133.996 42.2497C134.342 42.2389 134.67 42.094 134.91 41.8457C135.151 41.5973 135.286 41.265 135.286 40.9191C135.286 40.5732 135.151 40.2409 134.91 39.9925C134.67 39.7441 134.342 39.5992 133.996 39.5884C133.643 39.5872 133.303 39.7262 133.052 39.9748C132.802 40.2234 132.659 40.5613 132.657 40.9145C132.657 41.6504 133.256 42.2497 133.996 42.2497ZM133.69 40.9942H134.016L134.444 41.6705H134.664L134.212 40.9942C134.476 40.9709 134.683 40.8602 134.683 40.5677C134.683 40.2945 134.547 40.1476 134.148 40.1476H133.497V41.6711H133.69V40.9942H133.69ZM133.69 40.8149V40.3217H134.106C134.292 40.3217 134.471 40.3528 134.471 40.5631C134.471 40.8498 134.171 40.8149 133.959 40.8149H133.69Z" fill="white" fill-opacity="0.2"></path><path fill-rule="evenodd" clip-rule="evenodd" d="M26.1424 30.6644C26.1388 30.7951 26.0854 30.9195 25.993 31.012C25.9005 31.1045 25.7762 31.158 25.6455 31.1617C25.5148 31.1653 25.3877 31.1188 25.2903 31.0316C25.1929 30.9444 25.1326 30.8232 25.1217 30.6929C25.1183 30.625 25.1285 30.5571 25.1517 30.4931C25.1749 30.4292 25.2107 30.3706 25.2569 30.3206C25.303 30.2707 25.3587 30.2305 25.4207 30.2024C25.4826 30.1743 25.5495 30.1588 25.6175 30.1569C25.6855 30.155 25.7532 30.1667 25.8166 30.1914C25.88 30.216 25.9378 30.253 25.9867 30.3003C26.0356 30.3475 26.0745 30.4041 26.1013 30.4666C26.128 30.5292 26.142 30.5964 26.1424 30.6644Z" fill="white" fill-opacity="0.2"></path><path fill-rule="evenodd" clip-rule="evenodd" d="M29.9548 29.5836C28.4675 28.2465 27.4197 28.2109 25.1681 28.0892C25.1681 28.0892 24.0556 27.952 23.2174 27.7973C23.0543 27.7695 22.8149 27.7468 22.767 27.818C22.6964 27.8646 22.7165 28.1047 22.7443 28.2678C22.8951 29.1085 23.0278 30.2204 23.0278 30.2204C23.143 32.4727 23.1728 33.5212 24.5047 35.011C24.5047 35.011 28.1556 38.9137 30.9994 36.0808C30.9994 36.0808 31.2065 35.844 31.1437 35.6505C31.0369 35.3294 29.1484 33.5056 28.4229 32.7652C27.6792 32.0067 26.8185 31.333 26.6243 31.2799C26.5869 31.2664 26.5462 31.2648 26.5078 31.2754C26.3499 31.3148 26.2444 31.4999 26.2444 31.4999C26.2276 31.5317 26.1939 31.5867 26.2373 31.6909C26.3674 31.973 26.8075 32.5413 27.7239 33.4629C28.6954 34.4357 30.0208 35.6233 30.0208 35.6233C28.362 36.8976 25.8483 34.8492 25.8483 34.8492C24.2199 33.4894 23.73 30.8314 23.8523 28.917C25.7693 28.8043 28.4384 29.2956 29.7872 30.9233C29.7872 30.9233 31.1476 32.7167 30.8693 34.2713C30.8655 34.2911 30.8656 34.3115 30.8697 34.3313C30.8739 34.351 30.8818 34.3698 30.8933 34.3865C31.1444 34.7295 31.5773 34.778 31.9139 34.4706C31.9404 34.4389 31.9353 34.4337 31.9689 34.3774C32.4867 31.9692 29.9548 29.5836 29.9548 29.5836ZM38.9581 31.1725C38.823 31.1759 38.6922 31.1258 38.594 31.033C38.4959 30.9402 38.4385 30.8123 38.4345 30.6773C38.4317 30.5423 38.4821 30.4116 38.5748 30.3133C38.6676 30.2151 38.7952 30.1574 38.9302 30.1525C39.0654 30.1495 39.1962 30.2 39.2944 30.2929C39.3925 30.3858 39.4501 30.5138 39.4545 30.6489C39.4578 30.784 39.4074 30.915 39.3144 31.0132C39.2213 31.1113 39.0932 31.1686 38.9581 31.1725Z" fill="white" fill-opacity="0.2"></path><path fill-rule="evenodd" clip-rule="evenodd" d="M40.0518 34.9916C41.3889 33.5063 41.4238 32.4584 41.5462 30.2068C41.5462 30.2068 41.684 29.0943 41.8368 28.2555C41.8659 28.0937 41.8872 27.8536 41.8167 27.8057C41.7688 27.7345 41.5293 27.7559 41.3662 27.7837C40.718 27.894 40.0671 27.9885 39.4143 28.0672C37.1627 28.1824 36.1135 28.2134 34.623 29.5441C34.623 29.5441 30.7217 33.195 33.5551 36.0381C33.5551 36.0381 33.7894 36.2465 33.9829 36.1825C34.3059 36.0757 36.1278 34.1871 36.8682 33.4629C37.6273 32.7167 38.3024 31.8565 38.3542 31.6637C38.3677 31.6258 38.3692 31.5847 38.3587 31.5459C38.3198 31.3873 38.1341 31.2812 38.1341 31.2812C38.1024 31.2669 38.0474 31.2314 37.9419 31.2754C37.6603 31.4067 37.0908 31.8462 36.1698 32.762C35.1977 33.7334 34.0101 35.0589 34.0101 35.0589C32.7364 33.4008 34.7842 30.8857 34.7842 30.8857C36.1433 29.258 38.8014 28.7687 40.7164 28.8917C40.8303 30.8074 40.3385 33.4765 38.7095 34.8259C38.7095 34.8259 36.9154 36.1863 35.3615 35.9055C35.321 35.8996 35.2799 35.9093 35.2463 35.9326C34.9039 36.1825 34.8554 36.6167 35.1634 36.9526C35.1952 36.9785 35.2003 36.9733 35.2553 37.0063C37.6649 37.5228 40.0518 34.9916 40.0518 34.9916ZM38.4622 43.9955C38.4587 43.8605 38.5088 43.7297 38.6014 43.6315C38.694 43.5332 38.8218 43.4757 38.9567 43.4713C39.0919 43.4686 39.2227 43.5193 39.321 43.6123C39.4192 43.7053 39.4768 43.8331 39.4816 43.9683C39.4849 44.1034 39.4346 44.2343 39.3417 44.3324C39.2488 44.4305 39.1209 44.4878 38.9858 44.4919C38.9188 44.494 38.852 44.4827 38.7893 44.4589C38.7266 44.435 38.6693 44.3989 38.6206 44.3528C38.5719 44.3066 38.5329 44.2513 38.5057 44.19C38.4785 44.1286 38.4637 44.0626 38.4622 43.9955Z" fill="white" fill-opacity="0.2"></path><path fill-rule="evenodd" clip-rule="evenodd" d="M34.6329 45.0749C36.1169 46.4107 37.1673 46.4463 39.417 46.5693C39.417 46.5693 40.5289 46.7071 41.3683 46.8611C41.5301 46.8903 41.7715 46.9103 41.8188 46.8417C41.8887 46.7925 41.8693 46.5524 41.8401 46.3906C41.6893 45.5499 41.5567 44.4393 41.5567 44.4393C41.4428 42.1877 41.4123 41.1392 40.081 39.6481C40.081 39.6481 36.4302 35.7448 33.5864 38.5782C33.5864 38.5782 33.3786 38.8132 33.442 39.0067C33.5501 39.3296 35.4374 41.1515 36.1616 41.8919C36.9059 42.6511 37.7673 43.3261 37.9595 43.3785C37.988 43.3863 38.0339 43.398 38.0773 43.3811C38.2352 43.3455 38.3407 43.1578 38.3407 43.1578C38.3569 43.1274 38.3925 43.0718 38.3485 42.9669C38.2184 42.686 37.7776 42.1152 36.8618 41.1962C35.891 40.2215 34.5649 39.0345 34.5649 39.0345C36.2237 37.7608 38.7381 39.8086 38.7381 39.8086C40.3658 41.1677 40.8551 43.8258 40.7321 45.7415C38.817 45.8554 36.148 45.3622 34.7986 43.7339C34.7986 43.7339 33.4394 41.9398 33.7184 40.3852C33.7236 40.3451 33.7147 40.3043 33.6931 40.27C33.442 39.927 33.0084 39.8778 32.6731 40.1865C32.6466 40.2182 32.6518 40.2234 32.6181 40.2778C32.101 42.6886 34.6329 45.0749 34.6329 45.0749ZM25.6283 43.4834C25.7601 43.4856 25.8859 43.5387 25.9795 43.6315C26.0731 43.7243 26.1273 43.8496 26.1307 43.9813C26.1341 44.1131 26.0865 44.241 25.9979 44.3386C25.9092 44.4361 25.7864 44.4956 25.6549 44.5047C25.5231 44.5024 25.3973 44.4494 25.3037 44.3566C25.2101 44.2638 25.1559 44.1385 25.1525 44.0067C25.1491 43.875 25.1967 43.747 25.2853 43.6495C25.374 43.552 25.4969 43.4925 25.6283 43.4834Z" fill="white" fill-opacity="0.2"></path><path fill-rule="evenodd" clip-rule="evenodd" d="M24.5513 39.6689C23.2148 41.1555 23.1792 42.202 23.0569 44.4556C23.0569 44.4556 22.9197 45.5642 22.7669 46.4056C22.7359 46.5674 22.7151 46.8088 22.7863 46.8561C22.8329 46.9247 23.0737 46.9052 23.2368 46.8755C24.0762 46.7253 25.1881 46.592 25.1881 46.592C27.4397 46.4794 28.4895 46.447 29.9794 45.117C29.9794 45.117 33.8813 41.4662 31.0485 38.6217C31.0485 38.6217 30.8123 38.4146 30.6181 38.4793C30.2971 38.5861 28.474 40.4733 27.7336 41.1989C26.9737 41.9412 26.3 42.802 26.2489 42.9948C26.2418 43.0246 26.2288 43.0706 26.2443 43.1146C26.2832 43.2706 26.4676 43.3773 26.4676 43.3773C26.5 43.3929 26.5537 43.4278 26.6598 43.3825C26.9407 43.2531 27.5103 42.8143 28.4299 41.8972C29.4053 40.9257 30.591 39.6003 30.591 39.6003C31.8672 41.2584 29.8176 43.7734 29.8176 43.7734C28.4597 45.4011 25.7997 45.8898 23.8853 45.7668C23.7714 43.853 24.2633 41.1827 25.8923 39.8333C25.8923 39.8333 27.6857 38.4735 29.2402 38.7524C29.2806 38.759 29.3219 38.7502 29.3561 38.7278C29.6985 38.4774 29.7477 38.0431 29.4389 37.7085C29.4079 37.6813 29.402 37.6878 29.347 37.6541C26.9369 37.137 24.5513 39.6689 24.5513 39.6689Z" fill="white" fill-opacity="0.2"></path></svg> 