<?xml version="1.0" encoding="UTF-8"?> <svg xmlns="http://www.w3.org/2000/svg" width="157" height="75" viewBox="0 0 157 75" fill="none"><rect x="-0.00390625" width="156.664" height="75" fill="#1F1F1F"></rect><path opacity="0.2" fill-rule="evenodd" clip-rule="evenodd" d="M89.5605 39.3107C88.2143 39.6936 86.8557 40.0888 85.5095 40.4717C84.0769 40.9781 83.0888 41.7314 82.5207 42.6948C82.039 43.9051 82.1625 45.0414 82.8912 46.1035C83.6446 46.8199 84.6326 47.1163 85.8801 46.9681C87.041 46.8199 88.2761 46.1282 89.5976 44.8808C89.5852 43.0282 89.5729 41.1757 89.5605 39.3107ZM81.0263 36.1613C81.0263 35.7167 81.0263 35.2597 81.0263 34.8151C82.1749 33.9876 83.4223 33.4565 84.7685 33.2219C86.4605 32.9625 88.0908 33.1107 89.6593 33.6665C91.0179 34.3458 91.8083 35.4697 92.0553 37.0382C92.0553 40.6075 92.0553 44.1645 92.0553 47.7338C90.6227 47.6968 89.8199 47.0545 89.647 45.8071C88.8071 46.3629 87.9673 46.931 87.1275 47.4868C85.4601 47.8697 84.2374 48.0549 83.4717 48.0549C81.7179 47.8079 80.557 47.2151 80.0012 46.2517C79.2231 44.8808 79.2972 43.547 80.2111 42.2872C81.0633 41.1263 82.9406 40.1629 85.8307 39.4095C87.8561 38.9032 89.0789 38.6191 89.4864 38.5697C89.7334 36.4454 89.2641 35.1115 88.0908 34.5557C85.4478 33.5183 83.1012 34.0494 81.0263 36.1613ZM123.883 39.3354C122.537 39.7183 121.178 40.1135 119.832 40.4964C118.399 41.0028 117.411 41.7561 116.843 42.7195C116.361 43.9298 116.485 45.0661 117.213 46.1282C117.967 46.8569 118.955 47.141 120.202 46.9928C121.363 46.8446 122.598 46.1529 123.92 44.9055C123.907 43.0529 123.895 41.188 123.883 39.3354ZM115.361 36.186C115.361 35.7414 115.361 35.2844 115.361 34.8398C116.509 34.0123 117.757 33.4813 119.103 33.2466C120.795 32.9872 122.425 33.1354 123.994 33.6912C125.352 34.3705 126.143 35.4944 126.39 37.0629C126.39 40.6322 126.39 44.1892 126.39 47.7585C124.957 47.7215 124.154 47.0792 123.982 45.8318C123.142 46.3876 122.302 46.9557 121.462 47.5115C119.795 47.8944 118.572 48.0796 117.806 48.0796C116.053 47.8326 114.892 47.2398 114.336 46.2765C113.558 44.9055 113.632 43.5717 114.546 42.3119C115.398 41.151 117.275 40.1876 120.165 39.4342C122.191 38.9279 123.413 38.6438 123.821 38.5944C124.068 36.4701 123.599 35.1362 122.425 34.5805C119.77 33.5307 117.423 34.0741 115.361 36.186ZM110.285 47.7338C110.285 44.498 110.285 41.2621 110.285 38.0386C110.26 36.6306 109.717 35.4203 108.667 34.4075C106.802 33.2095 104.566 32.9872 101.961 33.7283C100.54 34.247 99.3916 35.2721 98.5147 36.7789C98.6629 34.8028 97.8601 33.8147 96.1187 33.8147C96.1063 37.7916 96.1063 41.7685 96.094 45.733C96.341 47.0422 97.1438 47.6968 98.5147 47.7215C98.5147 45.2266 98.5147 42.7195 98.5147 40.2247C98.6382 38.1745 99.3175 36.5812 100.54 35.4326C101.553 34.5681 102.85 34.2346 104.431 34.4322C106.221 34.5928 107.333 35.6302 107.765 37.5322C107.839 37.8163 107.876 38.5326 107.876 39.6689C107.876 41.6326 107.876 43.5964 107.876 45.5725C108.062 46.9434 108.864 47.6721 110.285 47.7338ZM56.2634 44.9302C56.1028 44.3621 55.9052 43.8063 55.6705 43.2753C55.51 43.7693 55.3741 44.2757 55.2506 44.8067C55.51 45.6219 55.7076 46.4864 55.8558 47.4127C55.9422 46.5482 56.0781 45.7083 56.2634 44.9302ZM56.955 42.596C56.7944 42.1761 56.6215 41.7808 56.4239 41.3856C56.2263 41.7932 56.0411 42.2131 55.8805 42.6454C56.0781 43.1641 56.251 43.7075 56.4116 44.2757C56.5721 43.6952 56.7574 43.1394 56.955 42.596ZM57.6096 44.7944C57.4984 44.2633 57.3502 43.7569 57.1897 43.2629C56.955 43.794 56.745 44.3498 56.5845 44.9179C56.7821 45.733 56.9303 46.5976 57.0538 47.4992C57.1773 46.5482 57.3626 45.6466 57.6096 44.7944ZM53.3239 34.704C52.9905 34.4446 52.657 34.1729 52.3235 33.9135C54.9789 32.6785 57.7825 32.6785 60.7219 33.9135C60.3761 34.1729 60.0303 34.4446 59.6845 34.704C57.5849 33.5677 55.4606 33.5677 53.3239 34.704ZM50.2239 35.1115C50.6192 34.8522 51.002 34.6052 51.3972 34.3458C53.608 35.8032 55.2877 37.6557 56.4486 39.8912C57.6343 37.6063 59.3387 35.7414 61.5618 34.3087C61.9323 34.5681 62.2904 34.8275 62.661 35.0745C60.0797 36.4701 58.1283 38.3227 56.8191 40.6446C56.9921 41.0275 57.1403 41.4103 57.2885 41.8055C58.5359 39.039 60.5367 37.0259 63.2785 35.7414C63.5379 36.0625 63.7972 36.396 64.0442 36.7171C61.3642 37.5446 58.9928 39.7059 57.5355 42.5466C57.6713 43.0035 57.7948 43.4729 57.8936 43.9422C59.0669 40.8051 61.2283 38.6067 64.4024 37.347C64.5506 37.7545 64.7112 38.1498 64.8594 38.5573C61.6482 39.3354 59.3757 41.4103 58.0542 44.782C58.1654 45.3996 58.2395 46.0294 58.2889 46.684C59.3387 42.7565 61.5741 40.2247 64.9952 39.0884C65.0817 39.5207 65.1805 39.953 65.2669 40.3729C61.5741 41.3856 59.2646 43.8557 58.363 47.7956C58.2395 47.7832 58.116 47.7832 57.9924 47.7709C57.9554 47.0175 57.8689 46.2888 57.7578 45.5848C57.5108 46.3135 57.3132 47.1039 57.1526 47.9438C57.0291 47.9438 56.9056 47.9438 56.7821 47.9438C56.7203 47.1039 56.5968 46.2888 56.3992 45.5107C56.2016 46.3012 56.0781 47.1163 56.0287 47.9438C55.8928 47.9314 55.7446 47.9191 55.6088 47.9067C55.4729 47.1163 55.2877 46.3629 55.0654 45.6713C54.9542 46.3629 54.8677 47.0792 54.8183 47.8203C54.7072 47.8079 54.5837 47.7956 54.4725 47.7832C53.6574 43.831 51.3231 41.3486 47.4574 40.3482C47.5192 39.9159 47.5809 39.4836 47.655 39.0637C51.2614 40.1506 53.5462 42.7071 54.5343 46.7334C54.596 46.1035 54.6825 45.486 54.7813 44.8932C53.5215 41.6697 51.212 39.5207 47.865 38.4585C48.0132 38.088 48.1614 37.7175 48.3096 37.347C51.5084 38.4956 53.7315 40.7187 54.9666 44.0039C55.0777 43.5223 55.2012 43.0529 55.3371 42.596C53.8921 39.6936 51.5084 37.5693 48.7295 36.68C49.0012 36.3466 49.2729 36.0131 49.5323 35.6797C52.2618 36.9024 54.2749 38.9773 55.5594 41.9043C55.7076 41.4968 55.8681 41.0892 56.0411 40.7063C54.7566 38.4091 52.8176 36.5442 50.2239 35.1115ZM65.2793 41.2374C64.6371 41.5091 63.9948 41.7808 63.3526 42.0649C63.0315 44.1769 61.7347 45.7701 59.4745 46.8199C59.3881 47.0792 59.3016 47.3509 59.2152 47.6103C62.8709 46.4247 64.8841 44.3004 65.2793 41.2374ZM53.4104 46.7087C53.5092 47.0051 53.608 47.3015 53.7068 47.6103C50.0881 46.4864 48.0379 44.3621 47.5439 41.2374C48.2231 41.5091 48.9148 41.7932 49.5941 42.0649C50.0263 44.1151 51.2984 45.6713 53.4104 46.7087ZM30.9941 26.5032C33.069 26.5032 35.1439 26.5032 37.2064 26.5032C40.0841 26.6637 42.2578 27.6641 43.6905 29.5044C44.8267 31.4311 44.7279 33.506 43.3941 35.7167C42.6901 36.5936 41.5168 37.3223 39.8494 37.8781C42.159 41.188 44.4809 44.4856 46.7905 47.7956C46.3706 47.7956 45.9506 47.7956 45.5307 47.7956C44.6291 47.7091 43.6905 47.2398 42.7024 46.3876C40.7634 43.5223 38.812 40.6569 36.873 37.7916C39.4172 37.1741 41.0351 35.8649 41.7391 33.8888C42.3196 31.641 41.702 29.9243 39.8741 28.751C38.4291 27.7629 36.1072 27.306 32.9084 27.4048C33.0937 27.4789 33.2666 27.5406 33.4518 27.6147C33.4518 34.3581 33.4518 41.0892 33.4518 47.8326C31.9574 47.7338 31.1299 46.9063 30.957 45.3749C30.9817 39.0761 30.9941 32.7896 30.9941 26.5032ZM76.5554 47.5733C76.5677 47.4498 76.5677 47.3263 76.5801 47.2027C75.1845 47.4498 74.2335 47.4251 73.7394 47.1163C72.8255 46.7334 72.3191 45.6713 72.2203 43.9422C72.2327 40.8669 72.2327 37.7916 72.245 34.7163C72.0104 34.6422 71.7757 34.5681 71.5534 34.494C73.0231 34.5063 74.4928 34.5063 75.9749 34.5187C75.9749 34.2593 75.9749 34 75.9749 33.7406C74.7398 33.7406 73.5048 33.7406 72.2697 33.7406C72.2697 33.2589 72.2697 32.7773 72.2697 32.2832C71.9857 30.9864 71.1829 30.3195 69.8614 30.2825C69.8614 31.4311 69.8614 32.5673 69.8614 33.7159C68.9968 33.7159 68.1446 33.7159 67.2801 33.7159C67.2801 33.9753 67.2801 34.2346 67.2801 34.494C68.1199 34.5063 68.9598 34.5063 69.7996 34.5187C69.7996 37.9028 69.7996 41.2745 69.7996 44.6585C69.8861 46.3753 70.7753 47.4127 72.4797 47.7832C73.1466 47.9808 74.5052 47.9067 76.5554 47.5733Z" fill="white"></path></svg> 