<?xml version="1.0" encoding="UTF-8"?> <svg xmlns="http://www.w3.org/2000/svg" width="157" height="75" viewBox="0 0 157 75" fill="none"><rect x="-0.00390625" width="156.664" height="75" fill="#1F1F1F"></rect><path fill-rule="evenodd" clip-rule="evenodd" d="M75.6744 64.144H129.147V10.6719H75.6744V64.144ZM20.6367 64.1199H74.0847V10.6719H20.6367V64.1199Z" fill="#1F1F1F"></path><path fill-rule="evenodd" clip-rule="evenodd" d="M74.0836 27.9656C67.219 28.2065 60.8601 29.1699 54.5495 30.856C51.8277 40.5628 49.9248 50.896 49.0818 60.1934C48.8409 60.2897 47.9738 60.4101 47.5162 60.4101C45.3725 60.4101 44.12 59.543 44.12 57.4957C44.12 52.5338 46.071 42.1526 48.5278 32.6865C45.5411 33.7223 42.5303 34.9025 39.4713 36.2754C38.0743 42.2489 37.0626 48.4873 36.5568 54.5812C36.2919 54.7016 35.5211 54.8221 35.0394 54.8221C33.3051 54.8221 32.1249 53.6659 32.1249 51.7149C32.1249 48.415 32.7752 43.8145 33.7628 39.0213C31.1855 40.322 28.5601 41.7431 25.8865 43.3087C25.6215 42.8029 25.5252 42.1044 25.5974 41.719C25.6697 41.1409 26.031 39.9125 27.4039 38.925C30.0775 36.998 31.595 36.2514 34.7744 34.5412C36.1714 28.7604 37.9538 23.1965 39.5676 19.728C40.5793 17.512 41.904 16.669 44.1441 16.669C44.7462 16.669 45.5652 16.8135 45.9746 16.934C43.9273 21.39 42.1449 26.3759 40.6756 31.6267C43.566 30.3261 46.625 29.1217 49.8044 28.086C51.2496 23.0519 52.7911 18.62 54.1641 15.9705C54.983 14.3567 56.2596 13.5137 58.1624 13.5137C59.0536 13.5137 60.0171 13.6582 60.5711 13.8509C58.8609 17.6806 57.3194 21.8958 55.9465 26.2795C61.6068 24.8343 67.6284 23.8709 74.1077 23.5578V27.9656H74.0836ZM81.7191 33.0719H86.5845H87.9093C87.8852 33.1924 87.8611 33.3128 87.837 33.4332C87.5721 34.1077 87.1867 34.2522 86.4882 34.2763H84.5131H83.1883L82.4898 37.552H84.8262H86.1269C86.1028 37.6725 86.0787 37.7929 86.0546 37.8892C85.8138 38.5637 85.4043 38.7082 84.7299 38.7082H84.4649H82.249L81.4782 42.5379H84.8503H85.0189H86.3437C86.3196 42.6584 86.2955 42.7788 86.2714 42.8992C86.0065 43.5737 85.6211 43.7182 84.9226 43.7423H82.9475H81.0928H81.0446C79.5272 43.7423 79.8885 42.2971 79.9607 42.008L81.7191 33.0719ZM122.955 36.7572C123.606 36.7572 124.376 36.9499 124.882 37.2148L125.099 36.1309C124.617 35.8901 123.726 35.6974 123.027 35.6974C121.101 35.6974 119.679 36.6849 119.679 38.1301C119.679 39.2622 120.547 39.8162 121.486 40.2497C122.546 40.7314 123.027 41.0205 123.027 41.5986C123.027 42.273 122.377 42.7788 121.221 42.7788C120.426 42.7788 119.535 42.562 118.885 42.1044L118.644 43.2364C119.342 43.67 120.306 43.8627 121.149 43.8627C123.124 43.8627 124.569 42.9474 124.569 41.3577C124.569 40.2497 123.798 39.7439 122.57 39.1417C121.727 38.7564 121.197 38.4191 121.197 37.9133C121.197 37.263 121.871 36.7572 122.955 36.7572ZM116.572 39.1176C115.729 38.7323 115.199 38.3951 115.199 37.8892C115.199 37.263 115.874 36.7572 116.958 36.7572C117.608 36.7572 118.379 36.9499 118.885 37.2148L119.101 36.1309C118.62 35.8901 117.728 35.6974 117.03 35.6974C115.103 35.6974 113.682 36.6849 113.682 38.1301C113.682 39.2622 114.549 39.8162 115.488 40.2497C116.548 40.7314 117.03 41.0205 117.03 41.5986C117.03 42.273 116.38 42.7788 115.223 42.7788C114.429 42.7788 113.537 42.562 112.887 42.1044L112.646 43.2364C113.345 43.67 114.308 43.8627 115.151 43.8627C117.126 43.8627 118.547 42.9474 118.547 41.3577C118.571 40.2256 117.801 39.7198 116.572 39.1176ZM110.551 36.7813C111.201 36.7813 111.562 37.1666 111.562 37.7447C111.562 38.8768 110.647 39.5994 109.057 39.5994C108.648 39.5994 107.997 39.5271 107.757 39.4308C108.094 38.2264 109.154 36.7813 110.551 36.7813ZM109.13 40.6592C111.49 40.6592 113.032 39.3344 113.032 37.7206C113.032 36.3236 111.875 35.6733 110.575 35.6733C107.877 35.6733 105.854 38.4191 105.854 40.9723C105.854 42.7788 107.13 43.8145 108.913 43.8145C109.9 43.8145 111.008 43.5014 111.707 43.0678L111.948 41.8635C111.297 42.2971 110.213 42.6825 109.322 42.6825C108.142 42.6825 107.492 42.008 107.492 40.876C107.492 40.7314 107.516 40.5147 107.516 40.3942C107.973 40.5869 108.648 40.6592 109.13 40.6592ZM106.6 37.0703L106.889 35.7455C106.769 35.7214 106.504 35.6733 106.335 35.6733C105.324 35.6733 104.625 36.2514 104.168 37.0462V35.8419H102.987C102.987 35.8419 103.012 36.2032 102.891 36.998L101.952 41.43L101.807 42.1044C101.759 42.3693 101.398 43.7423 102.843 43.7423H103.06L103.397 42.1285L103.782 40.2979C104.023 39.1658 104.264 38.106 104.842 37.5279C105.155 37.2148 105.541 37.0462 106.095 37.0462C106.263 37.0221 106.504 37.0462 106.6 37.0703ZM96.5323 42.7788C96.2191 42.7788 95.8338 42.7306 95.6411 42.6584L96.0024 40.9482L96.8213 37.0462C97.1585 36.9017 97.7366 36.8053 98.1461 36.8053C99.2781 36.8053 99.8321 37.3834 99.8321 38.5155C99.8321 40.6833 98.5074 42.7788 96.5323 42.7788ZM98.4833 35.6974C98.4833 35.6974 97.5439 35.6492 95.4243 36.1068L94.8944 38.6359L94.4127 40.9482L93.4974 45.2597C93.4251 45.5247 93.0879 46.8976 94.5331 46.8976H94.7499L95.4243 43.67C95.7615 43.7663 96.2673 43.8386 96.6286 43.8386C99.5672 43.8386 101.47 41.2373 101.47 38.4191C101.446 36.5645 100.242 35.6974 98.4833 35.6974ZM92.4376 42.2489L91.3778 39.7921L94.6776 35.8419H93.2083L90.9201 38.7082L89.6917 35.8419H88.0297L89.6917 39.6957L86.2473 43.6941H87.7166L90.1253 40.7796L90.8238 42.4175C91.0405 42.8992 91.1851 43.1883 91.4259 43.4291C91.715 43.6941 92.1004 43.8386 92.5821 43.8386C92.7507 43.8386 92.9193 43.8145 93.0879 43.7664L92.4616 42.3212C92.4616 42.2971 92.4616 42.273 92.4376 42.2489ZM84.9466 22.4498L84.3686 25.2438C83.381 25.4365 82.6343 25.6051 81.9358 25.7978L82.0563 25.2197L82.6343 22.4257H81.3337L80.5147 26.3277C80.322 26.4 80.1293 26.4963 79.9126 26.6167C79.5513 26.8094 79.4308 27.0744 79.4067 27.1948C79.3827 27.2912 79.3827 27.4357 79.4308 27.5802C79.744 27.4598 80.0571 27.3393 80.3461 27.2189L80.033 28.7364C79.9848 28.9531 79.6958 30.0852 80.876 30.0852H81.0687L81.7431 26.8576C82.4657 26.6649 83.2124 26.4963 84.1759 26.3036V26.3518L83.6701 28.7364C83.6219 28.9531 83.3329 30.0852 84.5131 30.0852H84.6817L86.2955 22.4257H84.9466V22.4498ZM113.923 22.4739L112.598 28.8086C112.55 29.0254 112.261 30.1575 113.441 30.1575H113.61L115.223 22.4979H113.923V22.4739ZM118.258 25.1475C117.632 25.1475 117.102 25.4365 116.765 25.7978L116.645 25.2197H115.657C115.657 25.6292 115.585 26.1832 115.416 27.0262L114.79 29.9889H116.091L116.548 27.8211C116.669 27.2189 116.885 26.0868 117.801 26.0868C118.258 26.0868 118.499 26.3759 118.355 27.0503L118.017 28.7364C117.969 28.9531 117.68 30.0852 118.86 30.0852H119.029L119.679 27.0262C119.944 25.7255 119.246 25.1475 118.258 25.1475ZM108.865 30.037C108.768 30.4224 108.576 30.7596 108.335 31.0005C108.094 31.2414 107.757 31.3618 107.395 31.3618C106.938 31.3618 106.576 31.145 106.576 30.7596C106.576 30.2538 107.058 30.1575 107.781 30.0611C108.286 30.0129 108.72 29.8925 108.985 29.6516L108.865 30.037ZM109.443 27.4357C109.322 28.0378 109.105 29.1699 108.19 29.1699C107.371 29.1699 107.636 28.2546 107.684 28.0378L108.262 25.2679H106.962L106.384 27.9897C106.335 28.2787 106.263 28.5678 106.263 28.8086C106.263 29.1699 106.384 29.459 106.576 29.6757C105.806 29.8684 105.468 30.2538 105.468 30.8078C105.468 31.6267 106.287 32.1326 107.371 32.1326C108.311 32.1326 109.057 31.8194 109.515 31.2895C109.9 30.856 110.141 30.2538 110.31 29.4349L111.201 25.2679H109.9L109.443 27.4357ZM123.557 25.1475C122.931 25.1475 122.401 25.4365 122.064 25.7978L121.944 25.2197H120.956C120.956 25.6292 120.884 26.1832 120.715 27.0262L120.089 29.9889H121.39L121.847 27.8211C121.968 27.2189 122.184 26.0868 123.1 26.0868C123.557 26.0868 123.798 26.3759 123.654 27.0503L123.316 28.7364C123.268 28.9531 122.979 30.0852 124.16 30.0852H124.328L124.978 27.0262C125.243 25.7255 124.545 25.1475 123.557 25.1475ZM103.903 28.0619C103.83 28.4232 103.71 28.7123 103.541 28.929C103.373 29.1217 103.132 29.2422 102.819 29.2422C102.385 29.2422 102.144 28.9531 102.144 28.3751C102.144 27.3634 102.867 25.9905 104.023 25.9905C104.144 25.9905 104.24 26.0146 104.336 26.0628L103.903 28.0619ZM104.047 25.1716C102.241 25.1716 100.82 26.6167 100.82 28.4232C100.82 29.483 101.422 30.1334 102.409 30.1334C103.012 30.1334 103.493 29.8925 103.782 29.5794C103.879 29.9166 104.216 30.1093 104.601 30.1093H104.77L105.709 25.6533C105.252 25.3642 104.674 25.1716 104.047 25.1716ZM88.656 28.8086C88.4392 29.0736 88.1742 29.2663 87.837 29.2663C87.3071 29.2663 87.1144 28.905 87.1144 28.3991C87.1144 27.8452 87.3312 27.0262 87.7166 26.5204C87.9334 26.2554 88.2224 26.0628 88.5355 26.0628C89.0654 26.0628 89.2581 26.424 89.2581 26.9299C89.2581 27.4839 89.0654 28.3028 88.656 28.8086ZM88.7041 25.1716C88.0056 25.1716 87.4035 25.3883 86.9458 25.7737C86.2232 26.3759 85.7897 27.3393 85.7897 28.3751C85.7897 29.5312 86.5845 30.1093 87.6684 30.1093C88.3669 30.1093 88.9691 29.8925 89.4267 29.5071C90.1493 28.905 90.5829 27.9415 90.5829 26.9058C90.5829 25.7737 89.788 25.1716 88.7041 25.1716ZM93.4251 28.8086C93.3769 29.0254 93.0879 30.1575 94.2681 30.1575H94.4367L95.4725 25.292H94.1718L93.4251 28.8086ZM90.8719 28.8086C90.8238 29.0254 90.5347 30.1575 91.715 30.1575H91.8836L93.2565 23.5818H91.9558L90.8719 28.8086ZM95.2316 23.2446C94.774 23.2446 94.3404 23.6541 94.3404 24.1117C94.3404 24.449 94.5813 24.6898 94.9185 24.6898C95.3761 24.6898 95.8338 24.2803 95.8338 23.8227C95.8338 23.4855 95.5688 23.2446 95.2316 23.2446ZM98.7964 28.0619C98.7241 28.4232 98.6037 28.7123 98.411 28.929C98.2424 29.1217 98.0256 29.2422 97.7125 29.2422C97.279 29.2422 96.9899 28.929 96.9899 28.3751C96.9899 27.243 97.8089 25.9905 98.8205 25.9905C98.965 25.9905 99.1336 26.0146 99.2059 26.0628L98.7964 28.0619ZM99.9285 22.6906L99.3745 25.2438C99.254 25.2197 99.0614 25.1956 98.8687 25.1956C96.9899 25.1956 95.6411 26.7131 95.6411 28.4473C95.6411 29.5071 96.2914 30.1575 97.279 30.1575C97.857 30.1575 98.3628 29.9166 98.6519 29.6035C98.7482 29.9407 99.0854 30.1334 99.4708 30.1334H99.6394L101.229 22.7147H99.9285V22.6906Z" fill="white" fill-opacity="0.2"></path></svg> 