<?xml version="1.0" encoding="UTF-8"?> <svg xmlns="http://www.w3.org/2000/svg" width="84" height="29" viewBox="0 0 84 29" fill="none"><path d="M42.9624 26.6815C43.7837 26.6815 44.1443 26.4612 44.1443 25.4195V19.5301H44.0441C42.4215 19.5301 41.8606 20.752 41.46 22.0742L41.4199 22.0541L41.6002 19.45H48.4512L48.6515 22.0541L48.5914 22.0742C48.2108 20.752 47.6499 19.5301 46.0073 19.5301H45.9071V25.4195C45.9071 26.4411 46.2677 26.6815 47.089 26.6815V26.7616H42.9624V26.6815Z" fill="#E6F0F2"></path><path d="M49.2926 26.6816C50.114 26.6816 50.2942 26.4212 50.2942 25.5198V20.672C50.2942 19.7706 50.114 19.5101 49.2926 19.5101V19.43H55.6628L55.8231 21.8138L55.783 21.8339C55.4826 20.4717 54.7013 19.5101 52.9185 19.5101H52.0771V23.0358H52.3976C53.7398 23.0358 54.3407 22.3146 54.541 21.313H54.6011V24.8186H54.541C54.3207 23.817 53.7398 23.1159 52.3976 23.1159H52.0771V26.6415H53.0186C54.9217 26.6415 55.5627 25.3795 55.9233 24.1576L55.9834 24.1776L55.763 26.7217H49.3127V26.6816H49.2926Z" fill="#E6F0F2"></path><path d="M56.4842 26.6815C57.7462 26.6815 58.0868 26.0806 58.2671 23.3562L58.4073 21.5333C58.5074 20.2312 58.227 19.5301 57.005 19.5301V19.45H59.9898L62.3736 24.3979L64.457 19.45H66.961V19.5301C66.0595 19.5301 65.9193 20.091 65.9594 20.9924L66.1797 25.2392C66.2398 26.2408 66.4201 26.7016 67.3015 26.7016V26.7817H63.4353V26.7016C64.2767 26.7016 64.477 26.2208 64.4369 25.3394L64.1565 20.5117L61.5523 26.6415H61.5122L58.6076 20.712L58.3873 23.3762C58.207 26.1206 58.4073 26.7016 59.6292 26.7016V26.7817H56.4842V26.6815Z" fill="#E6F0F2"></path><path d="M67.7822 26.6816C68.6035 26.6816 68.7838 26.4212 68.7838 25.5198V20.672C68.7838 19.7706 68.6035 19.5101 67.7822 19.5101V19.43H71.6684C73.9521 19.43 74.8135 20.3916 74.8135 21.5734C74.8135 22.7353 73.9721 23.6768 71.6684 23.6768H71.0474V23.5967H71.2878C72.5699 23.5967 72.9305 22.535 72.9305 21.5734C72.9305 20.6119 72.5699 19.5101 71.2878 19.5101H70.5466V25.4997C70.5466 26.4012 70.7269 26.6616 71.5482 26.6616V26.7417H67.7822V26.6816Z" fill="#E6F0F2"></path><path d="M75.4946 23.0956C75.4946 20.8921 77.2174 19.3096 79.5812 19.3096C81.9249 19.3096 83.6677 20.8921 83.6677 23.0956C83.6677 25.2991 81.9249 26.8817 79.5812 26.8817C77.2174 26.9017 75.4946 25.3192 75.4946 23.0956ZM81.7446 23.0956C81.7446 21.2326 81.2839 19.3897 79.5611 19.3897C77.8384 19.3897 77.3776 21.2527 77.3776 23.0956C77.3776 24.9586 77.8584 26.8016 79.5611 26.8016C81.2839 26.8016 81.7446 24.9586 81.7446 23.0956Z" fill="#E6F0F2"></path><path d="M38.1896 7.67227C39.3114 7.67227 40.2329 6.7508 40.2329 5.629V0C39.7721 1.28205 38.9708 2.02323 36.7673 2.02323H30.3771C28.8346 2.02323 27.5726 3.28525 27.5726 4.82772V11.4984C27.5726 13.141 26.2305 14.4832 24.5878 14.4832H17.3362C16.2144 14.4832 15.293 15.4046 15.293 16.5264V22.1554C15.7537 20.8734 16.555 20.1322 18.7585 20.1322H25.1487C26.6912 20.1322 27.9532 18.8702 27.9532 17.3277V10.657C27.9532 9.01442 29.2954 7.67227 30.938 7.67227H38.1896Z" fill="#E6F0F2"></path><path d="M24.5705 13.5219C25.6922 13.5219 26.6137 12.6004 26.6137 11.4786V5.84961C26.153 7.13166 25.3517 7.87285 23.1482 7.87285H16.758C15.2155 7.87285 13.9535 9.13487 13.9535 10.6773V17.348C13.9535 18.9906 12.6113 20.3328 10.9687 20.3328H3.71709C2.59529 20.3328 1.67383 21.2543 1.67383 22.376V28.0051C2.13457 26.723 2.93584 25.9818 5.13937 25.9818H11.5296C13.0721 25.9818 14.3341 24.7198 14.3341 23.1773V16.5067C14.3341 14.864 15.6762 13.5219 17.3189 13.5219H24.5705Z" fill="#E6F0F2"></path><path d="M38.1146 8.61308H30.9632C29.8414 8.61308 28.9199 9.53455 28.9199 10.6563V16.2854C29.3807 15.0033 30.1819 14.2621 32.3855 14.2621H38.7757C40.3382 14.2621 41.5802 13.0001 41.5802 11.4576V6.58984C41.1395 7.87189 40.3382 8.61308 38.1146 8.61308Z" fill="#E6F0F2"></path><path d="M3.79757 19.391H10.949C12.0708 19.391 12.9923 18.4695 12.9923 17.3478V11.7188C12.5315 13.0008 11.7303 13.742 9.52673 13.742H3.13652C1.57402 13.742 0.332031 15.004 0.332031 16.5465V21.4143C0.772736 20.1322 1.57402 19.391 3.79757 19.391Z" fill="#E6F0F2"></path><path d="M24.4877 21.0936H18.0975C16.555 21.0936 15.293 22.3556 15.293 23.898V28.7658C15.7537 27.4838 16.555 26.7426 18.7585 26.7426H25.91C27.0317 26.7426 27.9532 25.8211 27.9532 24.6993V19.0703C27.5125 20.3524 26.7112 21.0936 24.4877 21.0936Z" fill="#E6F0F2"></path></svg> 