<?xml version="1.0" encoding="UTF-8"?> <svg xmlns="http://www.w3.org/2000/svg" width="76" height="27" viewBox="0 0 76 27" fill="none"><path d="M16.1669 11.1176C15.9828 11.874 15.7197 12.5843 15.3842 13.2354C15.0422 13.8866 14.6344 14.472 14.1543 14.9981C13.6742 15.5243 13.1348 15.9716 12.5429 16.3465C11.9509 16.7214 11.3064 17.0042 10.6158 17.2015C9.92515 17.3988 9.20166 17.504 8.45186 17.504C7.34031 17.504 6.30111 17.2936 5.33426 16.8726C4.3674 16.4517 3.52552 15.8597 2.8086 15.0968C2.09169 14.3338 1.52605 13.413 1.11826 12.3409C0.703893 11.2688 0.5 10.0784 0.5 8.78266C0.5 7.96051 0.59208 7.17782 0.78282 6.42801C0.973559 5.67821 1.23665 4.9876 1.58524 4.34961C1.93383 3.71161 2.3482 3.13283 2.84149 2.61981C3.3282 2.10679 3.87411 1.66611 4.47922 1.30437C5.08432 0.942619 5.74204 0.659795 6.44581 0.462479C7.14957 0.265162 7.88621 0.166504 8.66233 0.166504C9.37267 0.166504 10.0567 0.265156 10.721 0.455895C11.3853 0.646634 12.0036 0.922884 12.5824 1.28463C13.1611 1.64638 13.6873 2.08048 14.1609 2.58692C14.6344 3.09995 15.0422 3.66558 15.3777 4.30357C15.7131 4.94156 15.9828 5.63217 16.1669 6.37539C16.3577 7.12519 16.4498 7.90789 16.4498 8.73004C16.4432 9.56535 16.3511 10.3612 16.1669 11.1176ZM13.5821 5.69137C13.3519 4.70478 13.0099 3.86948 12.5495 3.19202C12.0891 2.50799 11.5103 1.9884 10.8197 1.63323C10.129 1.27806 9.31347 1.09389 8.37293 1.08731C7.52447 1.08074 6.76809 1.25174 6.10379 1.60691C5.43949 1.96208 4.88043 2.46853 4.42002 3.12625C3.96619 3.78397 3.6176 4.58639 3.38082 5.5335C3.14404 6.48062 3.02565 7.53957 3.02565 8.71689C3.02565 9.87448 3.14404 10.94 3.37425 11.9068C3.60445 12.8737 3.94646 13.7024 4.40029 14.3864C4.85412 15.0771 5.41318 15.6164 6.08406 15.9979C6.75494 16.3859 7.52447 16.5767 8.39924 16.5898C9.20166 16.5964 9.93831 16.4517 10.6092 16.1491C11.2801 15.8466 11.8654 15.3928 12.3521 14.7679C12.8389 14.1497 13.2203 13.367 13.49 12.4199C13.7662 11.4727 13.9044 10.348 13.9109 9.04575C13.9241 7.79608 13.8123 6.67795 13.5821 5.69137Z" fill="#E6F0F2"></path><path d="M26.7691 17.4776H26.2166V15.0967C25.7496 15.59 25.3353 15.9912 24.9867 16.3003C24.6381 16.6094 24.3158 16.8528 24.0264 17.0238C23.737 17.2014 23.4673 17.3198 23.2108 17.379C22.9543 17.4382 22.6978 17.471 22.4347 17.471C21.7836 17.471 21.2705 17.3263 20.8891 17.0435C20.5076 16.7607 20.2182 16.399 20.0143 15.9649C19.817 15.5308 19.6854 15.0638 19.6328 14.5508C19.5802 14.0443 19.5473 13.5642 19.5473 13.1235V8.13139C19.5473 7.76306 19.5144 7.46709 19.4486 7.24346C19.3829 7.01326 19.2711 6.84226 19.1198 6.72387C18.9685 6.60548 18.7712 6.51998 18.5344 6.48052C18.2976 6.43447 18.0017 6.41474 17.6465 6.41474V5.95434H21.5862V13.4326C21.5862 13.7549 21.606 14.064 21.652 14.3666C21.698 14.6691 21.7836 14.9388 21.9085 15.1822C22.0401 15.4255 22.2242 15.6163 22.4676 15.761C22.7109 15.9057 23.0332 15.978 23.441 15.978C23.6054 15.978 23.783 15.9517 23.9738 15.9057C24.1645 15.8596 24.375 15.7741 24.6052 15.6557C24.8354 15.5308 25.0853 15.3729 25.3484 15.169C25.6115 14.9651 25.9009 14.7086 26.2166 14.3929V8.0459C26.2166 7.70388 26.1837 7.42763 26.1179 7.21716C26.0522 7.00669 25.9404 6.84884 25.7957 6.73045C25.6444 6.61206 25.4602 6.53313 25.2366 6.49367C25.0064 6.4542 24.7433 6.42789 24.4276 6.40816V5.94775H28.2555V14.1495C28.2555 14.4784 28.2687 14.7546 28.295 14.9717C28.3213 15.1887 28.3674 15.3598 28.4331 15.4847C28.4923 15.6097 28.5712 15.6952 28.6699 15.7478C28.762 15.8004 28.8738 15.8267 29.0119 15.8267C29.1303 15.8267 29.275 15.8136 29.4592 15.7873C29.6368 15.761 29.8209 15.7084 29.9985 15.6426L30.1629 16.0767L26.7691 17.4776Z" fill="#E6F0F2"></path><path d="M39.9965 14.7479C39.7532 15.2807 39.4309 15.7411 39.0428 16.1423C38.6548 16.5435 38.1944 16.8658 37.6682 17.1092C37.142 17.3525 36.5566 17.4775 35.9186 17.4775C35.2543 17.4775 34.6295 17.3394 34.0376 17.0631C33.4456 16.7869 32.9326 16.3988 32.4853 15.8924C32.0381 15.3859 31.6895 14.7742 31.433 14.0573C31.1765 13.3404 31.0449 12.5314 31.0449 11.6369C31.0449 10.6898 31.1765 9.83475 31.433 9.08495C31.6895 8.33515 32.0447 7.69717 32.5051 7.17099C32.9589 6.65139 33.5048 6.25018 34.1362 5.97394C34.7676 5.6977 35.4648 5.55957 36.2212 5.55957C36.8329 5.55957 37.3985 5.66481 37.9181 5.87528C38.4377 6.08575 38.8915 6.38829 39.273 6.78292C39.6545 7.17756 39.957 7.6577 40.1675 8.22334C40.3846 8.78898 40.4898 9.42697 40.4898 10.1439H32.972C32.972 10.9858 33.0773 11.7422 33.2943 12.413C33.5048 13.0773 33.7942 13.643 34.1625 14.1034C34.5308 14.5638 34.9518 14.919 35.4253 15.1623C35.9055 15.4057 36.4119 15.5372 36.9381 15.5438C37.2867 15.5504 37.6156 15.5109 37.9181 15.4254C38.2207 15.3399 38.5035 15.1952 38.7666 14.9847C39.0297 14.7808 39.273 14.5046 39.4901 14.156C39.7071 13.8074 39.9176 13.3799 40.1149 12.8669L40.4898 13.1102C40.4109 13.6759 40.2399 14.2152 39.9965 14.7479ZM37.7076 8.07206C37.5366 7.6577 37.3327 7.33541 37.0894 7.09863C36.846 6.86185 36.5895 6.704 36.3264 6.61849C36.0568 6.53299 35.8266 6.48695 35.6358 6.48695C35.3201 6.48695 35.011 6.55273 34.715 6.69085C34.419 6.82897 34.1494 7.03287 33.906 7.30253C33.6627 7.5722 33.4588 7.90764 33.2943 8.30885C33.1299 8.70348 33.0247 9.15731 32.9786 9.67033H37.9707C37.9642 9.01919 37.8787 8.48643 37.7076 8.07206Z" fill="#E6F0F2"></path><path d="M51.0864 14.7479C50.843 15.2807 50.5207 15.7411 50.1327 16.1423C49.7446 16.5435 49.2842 16.8658 48.758 17.1092C48.2318 17.3525 47.6465 17.4775 47.0085 17.4775C46.3442 17.4775 45.7193 17.3394 45.1274 17.0631C44.5355 16.7869 44.0224 16.3988 43.5752 15.8924C43.1279 15.3859 42.7793 14.7742 42.5228 14.0573C42.2663 13.3404 42.1348 12.5314 42.1348 11.6369C42.1348 10.6898 42.2663 9.83475 42.5228 9.08495C42.7793 8.33515 43.1345 7.69717 43.5949 7.17099C44.0487 6.65139 44.5946 6.25018 45.2261 5.97394C45.8575 5.6977 46.5547 5.55957 47.311 5.55957C47.9227 5.55957 48.4884 5.66481 49.008 5.87528C49.5276 6.08575 49.9814 6.38829 50.3629 6.78292C50.7443 7.17756 51.0469 7.6577 51.2574 8.22334C51.4744 8.78898 51.5796 9.42697 51.5796 10.1439H44.0553C44.0553 10.9858 44.1605 11.7422 44.3776 12.413C44.5881 13.0773 44.8775 13.643 45.2458 14.1034C45.6141 14.5638 46.0351 14.919 46.5086 15.1623C46.9888 15.4057 47.4952 15.5372 48.0214 15.5438C48.37 15.5504 48.6988 15.5109 49.0014 15.4254C49.3039 15.3399 49.5868 15.1952 49.8498 14.9847C50.1129 14.7808 50.3563 14.5046 50.5733 14.156C50.797 13.814 51.0009 13.3799 51.1982 12.8669L51.5731 13.1102C51.4941 13.6759 51.3297 14.2152 51.0864 14.7479ZM48.7975 8.07206C48.6265 7.6577 48.4226 7.33541 48.1792 7.09863C47.9359 6.86185 47.6794 6.704 47.4163 6.61849C47.1466 6.53299 46.9164 6.48695 46.7257 6.48695C46.41 6.48695 46.1008 6.55273 45.8049 6.69085C45.5089 6.82897 45.2392 7.03287 44.9959 7.30253C44.7525 7.5722 44.5486 7.90764 44.3842 8.30885C44.2197 8.70348 44.1145 9.15731 44.0685 9.67033H49.0606C49.0474 9.01919 48.9685 8.48643 48.7975 8.07206Z" fill="#E6F0F2"></path><path d="M59.1484 17.116V16.6556C59.5628 16.6556 59.8916 16.6293 60.135 16.5767C60.3784 16.5241 60.5559 16.4188 60.6809 16.2741C60.7993 16.1294 60.8782 15.919 60.9177 15.6493C60.9506 15.3796 60.9703 15.031 60.9703 14.6035V10.0455C60.9703 9.03918 60.8453 8.30253 60.5888 7.83555C60.3323 7.36856 59.8785 7.13837 59.2208 7.13837C58.7538 7.13837 58.2736 7.26992 57.7935 7.533C57.3068 7.79609 56.8267 8.19072 56.3399 8.72347V14.6101C56.3399 15.0442 56.3597 15.3994 56.3991 15.669C56.4386 15.9387 56.5241 16.1492 56.6491 16.2939C56.7806 16.4451 56.9582 16.5438 57.2016 16.5898C57.4383 16.6424 57.7606 16.6688 58.1684 16.6688V17.1292H52.6238V16.6556C52.979 16.6556 53.2618 16.6293 53.4789 16.5701C53.6959 16.5109 53.8669 16.4057 53.9919 16.2478C54.1103 16.09 54.1958 15.8729 54.2352 15.5901C54.2813 15.3073 54.301 14.9521 54.301 14.5114V10.2033C54.301 9.51274 54.2944 8.97342 54.2747 8.57221C54.2615 8.17757 54.2352 7.87502 54.2089 7.66455C54.1826 7.46065 54.1432 7.31596 54.0971 7.23703C54.0511 7.1581 53.9985 7.09232 53.9327 7.03313C53.6696 6.78977 53.2289 6.79636 52.6172 7.05945L52.4199 6.61219L55.8335 5.21124H56.3399V7.54616C57.662 5.99393 58.9116 5.21124 60.089 5.21124C60.6349 5.21124 61.0953 5.31647 61.4636 5.52037C61.8385 5.72426 62.1345 6.02024 62.3581 6.39514C62.5883 6.77004 62.7462 7.22387 62.8514 7.75662C62.9566 8.28938 63.0027 8.88133 63.0027 9.53906V14.5049C63.0027 14.9324 63.0224 15.2875 63.0684 15.5638C63.1145 15.84 63.1934 16.0571 63.3118 16.2215C63.4302 16.3859 63.6078 16.4977 63.8314 16.5569C64.055 16.6161 64.3576 16.649 64.7325 16.649V17.1226H59.1484V17.116Z" fill="#E6F0F2"></path><path d="M66.5227 4.97416C66.3714 5.26356 66.1872 5.50034 65.9768 5.69765C65.7663 5.89497 65.5492 6.04625 65.319 6.15806C65.0954 6.26987 64.9047 6.34881 64.76 6.39485V6.06599C64.8915 5.98706 65.0362 5.90155 65.1875 5.8029C65.3388 5.70424 65.4769 5.59242 65.6019 5.46745C65.7268 5.34248 65.8321 5.1978 65.9176 5.03337C66.0031 4.86893 66.0425 4.68476 66.0425 4.48087C66.0425 4.38221 66.0294 4.30329 66.0097 4.2441C65.9899 4.1849 65.9636 4.13229 65.9307 4.0994C65.8978 4.06652 65.865 4.0402 65.8321 4.02705C65.7992 4.01389 65.7729 4.00731 65.7531 4.00731C65.6874 4.00731 65.5953 4.02704 65.4901 4.07308C65.3848 4.11255 65.2796 4.13886 65.1809 4.13886C65.0888 4.13886 65.0033 4.11912 64.9113 4.08624C64.8192 4.04677 64.7402 3.99416 64.6679 3.92839C64.5955 3.86262 64.5364 3.77054 64.4903 3.67188C64.4443 3.56665 64.418 3.45483 64.418 3.32329C64.418 3.17201 64.4509 3.04047 64.5166 2.92866C64.5824 2.81684 64.6679 2.72476 64.76 2.65242C64.8586 2.58007 64.9705 2.52087 65.0888 2.48798C65.2072 2.44852 65.319 2.43536 65.4243 2.43536C65.5756 2.43536 65.7334 2.46824 65.8913 2.54059C66.0491 2.61294 66.1938 2.7116 66.3188 2.84315C66.4437 2.97469 66.549 3.13255 66.6279 3.32329C66.7068 3.50745 66.7463 3.71791 66.7463 3.95469C66.7529 4.34932 66.674 4.69134 66.5227 4.97416Z" fill="#E6F0F2"></path><path d="M75.1586 15.5043C74.9416 15.8858 74.6522 16.2278 74.2904 16.5172C73.9287 16.8131 73.5209 17.0434 73.0671 17.2144C72.6132 17.3854 72.1397 17.4709 71.6398 17.4709C71.3438 17.4709 71.0544 17.4248 70.7716 17.3393C70.4888 17.2538 70.2191 17.1552 69.9692 17.0565C69.7127 16.9513 69.4759 16.8526 69.2523 16.7474C69.0287 16.6487 68.8248 16.5829 68.634 16.5566C68.5419 16.5566 68.4564 16.6224 68.3907 16.7474C68.3183 16.8789 68.2591 16.9973 68.2065 17.1026H67.8053V13.1168H68.2065C68.3183 13.6758 68.4827 14.1757 68.7064 14.6032C68.93 15.0307 69.1931 15.3925 69.4956 15.6819C69.7982 15.9713 70.1336 16.1883 70.4954 16.333C70.8571 16.4777 71.2386 16.5501 71.6398 16.5501C71.9424 16.5501 72.212 16.504 72.4488 16.4119C72.6856 16.3199 72.8829 16.2015 73.0473 16.0502C73.2118 15.8989 73.3367 15.7279 73.4222 15.524C73.5077 15.3201 73.5538 15.1097 73.5604 14.8795C73.5669 14.6032 73.5406 14.3533 73.4748 14.1231C73.4091 13.8929 73.271 13.6627 73.0671 13.439C72.8566 13.2154 72.5672 12.9786 72.1989 12.7353C71.824 12.4853 71.3373 12.2091 70.7256 11.8934C70.1336 11.5843 69.6469 11.2949 69.2589 11.0186C68.8774 10.7424 68.5748 10.4661 68.3512 10.1965C68.1276 9.92023 67.9697 9.6374 67.8842 9.348C67.7921 9.05861 67.7461 8.73632 67.7461 8.39431C67.7461 7.97336 67.825 7.57874 67.9829 7.21699C68.1407 6.85524 68.3775 6.53954 68.6866 6.26988C68.9958 6.00021 69.3707 5.78973 69.8245 5.63188C70.2717 5.4806 70.7913 5.40167 71.3767 5.40167C71.6266 5.40167 71.8766 5.42799 72.1265 5.47403C72.3765 5.52007 72.6067 5.56611 72.8237 5.61872C73.0408 5.67134 73.2315 5.71738 73.4091 5.76342C73.5867 5.80946 73.7182 5.83578 73.8234 5.83578C73.9484 5.83578 74.0536 5.80946 74.1326 5.76342C74.2115 5.71738 74.3036 5.59241 74.4154 5.40167H74.8363V9.42036H74.4154C74.2575 8.82841 74.0734 8.32853 73.8629 7.9339C73.6524 7.53269 73.4157 7.21698 73.1657 6.9802C72.9092 6.74342 72.633 6.57242 72.3304 6.47376C72.0279 6.3751 71.699 6.32248 71.3438 6.32248C70.6006 6.32248 70.0547 6.46062 69.7061 6.73028C69.3575 7.00653 69.1799 7.35512 69.1733 7.78264C69.1668 8.01284 69.1799 8.2233 69.226 8.42719C69.272 8.63109 69.3575 8.8284 69.4891 9.01914C69.6206 9.20988 69.8113 9.39404 70.0481 9.57821C70.2915 9.75579 70.6072 9.93997 70.9952 10.1176L72.7974 10.9594C73.6656 11.3606 74.3299 11.8342 74.7903 12.3867C75.2507 12.9392 75.4809 13.5772 75.4809 14.2875C75.4875 14.7216 75.3757 15.1228 75.1586 15.5043Z" fill="#E6F0F2"></path><path d="M33.2545 20.9831C24.0859 25.4293 14.1148 12.2815 5.56445 19.2402L5.6368 19.3388C14.003 15.8069 21.7115 25.6727 30.3343 22.8708C31.4721 22.4762 32.4982 21.8513 33.3335 21.0621L33.2545 20.9831Z" fill="#E6F0F2"></path><path d="M47.4681 26.8433L45.7843 24.4295C45.7185 24.436 45.6593 24.436 45.6133 24.4426C45.5673 24.4426 45.5212 24.4492 45.4818 24.4492C45.4423 24.4492 45.4028 24.4492 45.3699 24.4492C45.3371 24.4492 45.2976 24.4426 45.2516 24.436V25.9356C45.2516 26.2645 45.291 26.4618 45.3634 26.5342C45.4555 26.646 45.6001 26.7052 45.7975 26.7052H46.0014V26.8499H43.752V26.7052H43.9493C44.1729 26.7052 44.3307 26.6328 44.4163 26.4947C44.4689 26.4158 44.4952 26.2316 44.4952 25.9291V22.5878C44.4952 22.2721 44.4623 22.0682 44.3965 21.9827C44.3439 21.9301 44.2781 21.8907 44.2058 21.8578C44.1334 21.8249 44.0479 21.8183 43.9493 21.8183H43.752V21.6802H45.6067C45.8764 21.6802 46.1066 21.6868 46.3105 21.7065C46.5144 21.7262 46.6788 21.7591 46.8038 21.7986C46.9353 21.8446 47.0537 21.9038 47.1655 21.9762C47.2773 22.0485 47.376 22.1406 47.4549 22.2392C47.5339 22.3445 47.5996 22.4563 47.6457 22.5813C47.6917 22.7062 47.718 22.8444 47.718 22.9891C47.718 23.1535 47.6917 23.2982 47.6457 23.4429C47.5931 23.581 47.5207 23.7125 47.422 23.8244C47.3234 23.9362 47.1918 24.0348 47.0406 24.1203C46.8893 24.2058 46.7051 24.2716 46.5012 24.3176L47.5141 25.8041C47.6259 25.9685 47.7312 26.1067 47.8298 26.2119C47.9285 26.3171 48.0271 26.4092 48.1258 26.475C48.2245 26.5407 48.3363 26.5934 48.4415 26.6263C48.5533 26.6591 48.6783 26.6854 48.823 26.6986V26.8433H47.4681ZM46.8564 22.6207C46.8038 22.4892 46.7314 22.3708 46.6394 22.2787C46.5473 22.1866 46.4289 22.1077 46.2973 22.0551C46.1658 22.0025 46.0145 21.9696 45.8501 21.9696C45.7185 21.9696 45.5212 21.9893 45.2581 22.0354V24.1927H45.4752C45.7251 24.1927 45.9356 24.1664 46.1198 24.1072C46.3039 24.048 46.4552 23.9756 46.5736 23.8704C46.692 23.7717 46.7841 23.6534 46.8432 23.5152C46.9024 23.3771 46.9353 23.2258 46.9353 23.0614C46.9353 22.897 46.909 22.7523 46.8564 22.6207Z" fill="#E6F0F2"></path><path d="M51.9157 26.0998C51.8368 26.2643 51.7381 26.409 51.6197 26.5339C51.4947 26.6589 51.3566 26.7576 51.1922 26.8365C51.0278 26.9154 50.8436 26.9549 50.6463 26.9549C50.4358 26.9549 50.2451 26.9088 50.0609 26.8233C49.8768 26.7378 49.7123 26.6129 49.5742 26.455C49.4361 26.2972 49.3243 26.1064 49.2453 25.8828C49.1664 25.6592 49.127 25.4092 49.127 25.1264C49.127 24.8304 49.1664 24.5608 49.2453 24.3306C49.3243 24.0938 49.4361 23.8965 49.5808 23.732C49.7255 23.5676 49.8965 23.4426 50.0938 23.3571C50.2911 23.2716 50.5082 23.2256 50.7449 23.2256C50.9357 23.2256 51.1133 23.2585 51.2777 23.3242C51.4421 23.39 51.5803 23.4821 51.7052 23.6071C51.8236 23.732 51.9157 23.8833 51.988 24.0543C52.0538 24.2319 52.0867 24.4292 52.0867 24.6529H49.7321C49.7321 24.9159 49.7649 25.1527 49.8307 25.3632C49.8965 25.5737 49.9886 25.7512 50.1004 25.8959C50.2122 26.0406 50.3437 26.1525 50.495 26.2248C50.6463 26.3037 50.8041 26.3432 50.9686 26.3432C51.0804 26.3432 51.179 26.33 51.2777 26.3037C51.3764 26.2774 51.4619 26.2314 51.5408 26.1656C51.6197 26.0998 51.6986 26.0143 51.7644 25.9091C51.8302 25.8039 51.896 25.6657 51.9617 25.5079L52.0801 25.5868C52.0472 25.7644 51.9946 25.9354 51.9157 26.0998ZM51.2054 24.0149C51.1527 23.8833 51.087 23.7847 51.0146 23.7123C50.9357 23.64 50.8568 23.5873 50.7778 23.561C50.6989 23.5347 50.62 23.5216 50.5608 23.5216C50.4621 23.5216 50.3635 23.5413 50.2714 23.5873C50.1793 23.6334 50.0938 23.6926 50.0149 23.7781C49.936 23.8636 49.8768 23.9688 49.8241 24.0938C49.7715 24.2188 49.7386 24.3569 49.7255 24.5213H51.2843C51.2843 24.3108 51.258 24.1464 51.2054 24.0149Z" fill="#E6F0F2"></path><path d="M55 26.3436C54.9342 26.4619 54.8422 26.5672 54.7303 26.6593C54.6185 26.7513 54.487 26.8237 54.3489 26.8763C54.2107 26.9289 54.0595 26.9552 53.9016 26.9552C53.8095 26.9552 53.7175 26.9421 53.632 26.9158C53.5464 26.8895 53.4609 26.8566 53.382 26.8237C53.3031 26.7908 53.2307 26.7579 53.1584 26.725C53.086 26.6921 53.0268 26.6724 52.9676 26.6658C52.9413 26.6658 52.915 26.6856 52.8887 26.725C52.869 26.7645 52.8493 26.804 52.8295 26.8368H52.7046V25.5937H52.8295C52.8624 25.7713 52.915 25.9226 52.9874 26.0607C53.0597 26.1988 53.1387 26.3107 53.2373 26.3962C53.3294 26.4883 53.4346 26.554 53.553 26.6001C53.6648 26.6461 53.7832 26.6658 53.9082 26.6658C54.0003 26.6658 54.0858 26.6527 54.1581 26.6264C54.2305 26.6001 54.2962 26.5606 54.3423 26.5145C54.3949 26.4685 54.4344 26.4159 54.4607 26.3501C54.487 26.2843 54.5001 26.2186 54.5067 26.1462C54.5067 26.0607 54.5001 25.9818 54.4804 25.9094C54.4607 25.8371 54.4146 25.7648 54.3489 25.699C54.2831 25.6266 54.191 25.5543 54.0792 25.4754C53.9608 25.3964 53.8095 25.3109 53.6188 25.2123C53.4346 25.1136 53.2834 25.0281 53.1584 24.9426C53.04 24.8571 52.9413 24.7716 52.8756 24.6861C52.8032 24.6006 52.7572 24.5085 52.7309 24.423C52.7046 24.3309 52.6914 24.2323 52.6914 24.127C52.6914 23.9955 52.7177 23.8705 52.7638 23.7587C52.8164 23.6469 52.8887 23.5482 52.9808 23.4627C53.0795 23.3772 53.1979 23.3115 53.336 23.2654C53.4741 23.2194 53.6385 23.1931 53.8227 23.1931C53.9016 23.1931 53.9805 23.1996 54.0595 23.2128C54.1384 23.2259 54.2107 23.2457 54.2765 23.2588C54.3423 23.272 54.4015 23.2917 54.4607 23.3049C54.5133 23.318 54.5593 23.3246 54.5922 23.3246C54.6317 23.3246 54.6646 23.318 54.6909 23.3049C54.7172 23.2917 54.7435 23.2522 54.7764 23.1931H54.9079V24.4493H54.7764C54.7238 24.2651 54.6711 24.1073 54.6054 23.9823C54.5396 23.8574 54.4673 23.7587 54.3883 23.6863C54.3094 23.614 54.2239 23.5614 54.1252 23.5285C54.0332 23.4956 53.9279 23.4825 53.8161 23.4825C53.5859 23.4825 53.4149 23.5285 53.3031 23.614C53.1913 23.6995 53.1387 23.8113 53.1387 23.9429C53.1387 24.0152 53.1387 24.081 53.1584 24.1468C53.1715 24.2125 53.1979 24.2717 53.2439 24.3309C53.2834 24.3901 53.3425 24.4493 53.4215 24.5019C53.5004 24.5611 53.5991 24.6137 53.7175 24.6729L54.2831 24.936C54.5528 25.061 54.7632 25.2123 54.9079 25.3833C55.0526 25.5543 55.125 25.7516 55.125 25.9752C55.0987 26.0936 55.0658 26.2186 55 26.3436Z" fill="#E6F0F2"></path><path d="M55.63 26.8428V26.6981C55.7418 26.6981 55.8273 26.6916 55.8997 26.6718C55.9655 26.6587 56.0247 26.6258 56.0641 26.5863C56.1036 26.5469 56.1299 26.4877 56.143 26.4153C56.1562 26.343 56.1628 26.2443 56.1628 26.1325V24.2646C56.1628 24.1001 56.143 23.9752 56.1102 23.8831C56.0773 23.7976 56.0049 23.7515 55.9063 23.7515C55.8405 23.7515 55.755 23.7713 55.6366 23.8107L55.584 23.6726L56.6363 23.2517H56.8008V26.1259C56.8008 26.2443 56.8074 26.3364 56.8205 26.4153C56.8337 26.4877 56.86 26.5469 56.906 26.5929C56.9455 26.6389 56.9981 26.6652 57.0704 26.6784C57.1362 26.6916 57.2283 26.6981 57.3401 26.6981V26.8428H55.63ZM56.8402 22.3309C56.8205 22.3769 56.7942 22.4229 56.7613 22.4558C56.7284 22.4887 56.689 22.5216 56.6363 22.5413C56.5903 22.5611 56.5377 22.5742 56.4851 22.5742C56.3732 22.5742 56.2812 22.5348 56.2088 22.4624C56.1365 22.3901 56.097 22.298 56.097 22.1796C56.097 22.1204 56.1102 22.0743 56.1299 22.0283C56.1496 21.9823 56.1759 21.9428 56.2154 21.9099C56.2483 21.877 56.2943 21.8507 56.3404 21.831C56.3864 21.8113 56.439 21.8047 56.4916 21.8047C56.5443 21.8047 56.5969 21.8113 56.6429 21.831C56.689 21.8507 56.7284 21.877 56.7613 21.9165C56.7942 21.9494 56.8205 21.9954 56.8468 22.0415C56.8665 22.0875 56.8797 22.1336 56.8797 22.1862C56.8665 22.2322 56.86 22.2848 56.8402 22.3309Z" fill="#E6F0F2"></path><path d="M60.386 26.9548H60.215V26.455C60.0637 26.6194 59.9059 26.7378 59.7415 26.8298C59.577 26.9154 59.3994 26.9614 59.1956 26.9614C59.0048 26.9614 58.8207 26.9154 58.6431 26.8298C58.4721 26.7443 58.3142 26.6194 58.1892 26.4681C58.0577 26.3168 57.9525 26.1327 57.8801 25.9222C57.8078 25.7117 57.7617 25.4815 57.7617 25.2316C57.7617 25.0803 57.7749 24.9225 57.8143 24.758C57.8472 24.6002 57.8998 24.4423 57.9656 24.2976C58.0314 24.1529 58.1103 24.0082 58.209 23.8767C58.3011 23.7451 58.4129 23.6267 58.5378 23.5281C58.6628 23.4294 58.8009 23.3505 58.9588 23.2913C59.1166 23.2321 59.2811 23.2058 59.4586 23.1992C59.6099 23.1992 59.748 23.2255 59.873 23.2716C59.998 23.3176 60.1098 23.39 60.215 23.4952V22.8835C60.215 22.7059 60.215 22.5678 60.2084 22.4692C60.2019 22.3705 60.1953 22.285 60.1887 22.2324C60.1821 22.1798 60.169 22.1337 60.1493 22.114C60.1361 22.0877 60.1164 22.0679 60.0966 22.0482C60.0572 22.0088 60.0046 21.9956 59.9322 22.0022C59.8664 22.0088 59.7809 22.0285 59.6823 22.0548L59.6297 21.9298L60.6754 21.5483H60.8464V25.5078C60.8464 25.692 60.8464 25.8433 60.853 25.9485C60.853 26.0603 60.8596 26.1458 60.8662 26.2116C60.8727 26.2774 60.8859 26.3234 60.8991 26.3497C60.9122 26.3826 60.9385 26.4023 60.9648 26.4221C61.0109 26.4615 61.0701 26.4747 61.1358 26.4747C61.2016 26.4681 61.2871 26.4484 61.3858 26.4089L61.4318 26.5405L60.386 26.9548ZM60.215 24.37C60.215 24.2713 60.1953 24.1727 60.1624 24.074C60.1229 23.9688 60.0703 23.8767 60.0045 23.7912C59.9322 23.7057 59.8467 23.6333 59.748 23.5741C59.6494 23.5149 59.531 23.4886 59.406 23.4821C59.2745 23.4755 59.1495 23.5084 59.0377 23.5741C58.9193 23.6399 58.8207 23.7386 58.7352 23.8635C58.6496 23.9885 58.5773 24.1464 58.5313 24.3239C58.4786 24.5015 58.4523 24.7054 58.4523 24.9225C58.4523 25.2053 58.4852 25.4421 58.551 25.6394C58.6168 25.8367 58.7023 26.0011 58.8075 26.1261C58.9127 26.2511 59.0311 26.3431 59.1561 26.4023C59.2876 26.4615 59.4126 26.4944 59.5376 26.4944C59.6625 26.4944 59.7809 26.4681 59.8862 26.4089C59.998 26.3563 60.1098 26.2708 60.215 26.1524V24.37Z" fill="#E6F0F2"></path><path d="M64.4899 26.0998C64.411 26.2643 64.3123 26.409 64.1939 26.5339C64.069 26.6589 63.9309 26.7576 63.7664 26.8365C63.602 26.9154 63.4178 26.9549 63.2205 26.9549C63.01 26.9549 62.8193 26.9088 62.6351 26.8233C62.451 26.7378 62.2865 26.6129 62.1484 26.455C62.0103 26.2972 61.8985 26.1064 61.8196 25.8828C61.7406 25.6592 61.7012 25.4092 61.7012 25.1264C61.7012 24.8304 61.7406 24.5608 61.8196 24.3306C61.8985 24.0938 62.0103 23.8965 62.155 23.732C62.2997 23.5676 62.4707 23.4426 62.668 23.3571C62.8653 23.2716 63.0824 23.2256 63.3192 23.2256C63.5099 23.2256 63.6875 23.2585 63.8519 23.3242C64.0163 23.39 64.1545 23.4821 64.2794 23.6071C64.3978 23.732 64.4899 23.8833 64.5623 24.0543C64.628 24.2319 64.6609 24.4292 64.6609 24.6529H62.3063C62.3063 24.9159 62.3392 25.1527 62.4049 25.3632C62.4707 25.5737 62.5628 25.7512 62.6746 25.8959C62.7864 26.0406 62.918 26.1525 63.0692 26.2248C63.2205 26.3037 63.3784 26.3432 63.5428 26.3432C63.6546 26.3432 63.7533 26.33 63.8519 26.3037C63.9506 26.2774 64.0361 26.2314 64.115 26.1656C64.1939 26.0998 64.2729 26.0143 64.3386 25.9091C64.4044 25.8039 64.4702 25.6657 64.536 25.5079L64.6543 25.5868C64.6215 25.7644 64.5688 25.9354 64.4899 26.0998ZM63.7796 24.0149C63.727 23.8833 63.6612 23.7847 63.5888 23.7123C63.5099 23.64 63.431 23.5873 63.3521 23.561C63.2731 23.5347 63.1942 23.5216 63.135 23.5216C63.0364 23.5216 62.9377 23.5413 62.8456 23.5873C62.7535 23.6334 62.668 23.6926 62.5891 23.7781C62.5102 23.8636 62.451 23.9688 62.3984 24.0938C62.3457 24.2188 62.3129 24.3569 62.2997 24.5213H63.8585C63.8585 24.3108 63.8322 24.1464 63.7796 24.0149Z" fill="#E6F0F2"></path><path d="M67.0154 26.8433V26.6986C67.1469 26.6986 67.2456 26.692 67.3245 26.6723C67.4034 26.6525 67.4561 26.6262 67.4955 26.5802C67.535 26.5341 67.5547 26.4684 67.5679 26.3829C67.581 26.2974 67.5876 26.1921 67.5876 26.054V24.6267C67.5876 24.311 67.5481 24.0808 67.4692 23.9361C67.3903 23.7914 67.2456 23.7191 67.0417 23.7191C66.897 23.7191 66.7457 23.7586 66.5944 23.8441C66.4432 23.923 66.2919 24.048 66.1406 24.219V26.0606C66.1406 26.1987 66.1472 26.3105 66.1603 26.3894C66.1735 26.4749 66.1998 26.5407 66.2393 26.5868C66.2787 26.6328 66.3379 26.6657 66.4103 26.6788C66.4826 26.692 66.5879 26.7052 66.7128 26.7052V26.8498H64.9764V26.6986C65.0883 26.6986 65.1738 26.692 65.2461 26.6723C65.3119 26.6525 65.3645 26.6196 65.404 26.5736C65.4434 26.521 65.4697 26.4552 65.4829 26.3697C65.496 26.2842 65.5026 26.1724 65.5026 26.0343V24.6794C65.5026 24.4623 65.5026 24.2913 65.496 24.1729C65.4895 24.048 65.4829 23.9559 65.4763 23.8901C65.4697 23.8243 65.4566 23.7783 65.4434 23.7586C65.4303 23.7322 65.4105 23.7125 65.3908 23.6928C65.3053 23.6139 65.1738 23.6204 64.983 23.6994L64.9238 23.5612L65.9893 23.1271H66.1472V23.8572C66.5616 23.3705 66.9496 23.1271 67.3179 23.1271C67.4889 23.1271 67.6336 23.16 67.7455 23.2258C67.8638 23.2916 67.9559 23.3837 68.0283 23.5021C68.1006 23.6204 68.1532 23.7651 68.1796 23.9296C68.2124 24.094 68.2256 24.2782 68.2256 24.4886V26.0408C68.2256 26.1724 68.2322 26.2842 68.2453 26.3697C68.2585 26.4552 68.2848 26.5276 68.3242 26.5736C68.3637 26.6262 68.4163 26.6591 68.4887 26.6788C68.561 26.6986 68.6531 26.7052 68.7715 26.7052V26.8564H67.0154V26.8433Z" fill="#E6F0F2"></path><path d="M71.81 26.1064C71.7179 26.284 71.6061 26.4353 71.4812 26.5603C71.3562 26.6853 71.2049 26.7839 71.0405 26.8563C70.8761 26.9286 70.7116 26.9615 70.5406 26.9615C70.3367 26.9615 70.146 26.9154 69.9618 26.8299C69.7842 26.7444 69.6264 26.6195 69.4883 26.455C69.3501 26.2906 69.2449 26.0933 69.1594 25.8631C69.0805 25.6329 69.041 25.3764 69.041 25.087C69.041 24.8107 69.0871 24.5542 69.1791 24.324C69.2712 24.0938 69.3896 23.8965 69.5475 23.7386C69.6987 23.5742 69.8763 23.4492 70.0802 23.3572C70.2841 23.2651 70.4946 23.2191 70.7248 23.2191C71.0668 23.2191 71.3496 23.3243 71.5732 23.5282C71.6851 23.6203 71.764 23.7123 71.8232 23.8044C71.8824 23.8965 71.9087 23.9952 71.9087 24.0872C71.9087 24.1727 71.8758 24.2451 71.8166 24.3109C71.7574 24.3766 71.6653 24.4095 71.5469 24.4095C71.5075 24.4095 71.468 24.4029 71.422 24.3964C71.3759 24.3898 71.3299 24.3701 71.2904 24.3437C71.251 24.3174 71.2115 24.2714 71.1852 24.2122C71.1523 24.153 71.1326 24.0675 71.126 23.9623C71.1128 23.8242 71.0668 23.7123 70.9813 23.6334C70.8958 23.5545 70.7708 23.5084 70.5932 23.5084C70.4485 23.5084 70.317 23.5413 70.2052 23.6071C70.0934 23.6729 69.9947 23.7584 69.9158 23.8768C69.8369 23.9886 69.7777 24.1267 69.7382 24.278C69.6987 24.4293 69.679 24.6003 69.679 24.7844C69.679 24.9883 69.7053 25.1856 69.7514 25.3764C69.804 25.5671 69.8763 25.7381 69.9684 25.8828C70.0605 26.0275 70.1789 26.1459 70.3236 26.2314C70.4617 26.3169 70.6261 26.363 70.8103 26.363C70.9155 26.363 71.0142 26.3498 71.1128 26.3235C71.2115 26.2972 71.3036 26.2511 71.3957 26.1854C71.4877 26.1196 71.5732 26.0275 71.6522 25.9157C71.7311 25.8039 71.81 25.6526 71.889 25.475L71.9942 25.5276C71.9613 25.7381 71.8955 25.9289 71.81 26.1064Z" fill="#E6F0F2"></path><path d="M75.3297 26.0998C75.2508 26.2643 75.1522 26.409 75.0338 26.5339C74.9088 26.6589 74.7707 26.7576 74.6063 26.8365C74.4418 26.9154 74.2577 26.9549 74.0604 26.9549C73.8499 26.9549 73.6591 26.9088 73.475 26.8233C73.2908 26.7378 73.1264 26.6129 72.9883 26.455C72.8501 26.2972 72.7383 26.1064 72.6594 25.8828C72.5805 25.6592 72.541 25.4092 72.541 25.1264C72.541 24.8304 72.5805 24.5608 72.6594 24.3306C72.7383 24.0938 72.8501 23.8965 72.9948 23.732C73.1395 23.5676 73.3105 23.4426 73.5079 23.3571C73.7052 23.2716 73.9222 23.2256 74.159 23.2256C74.3497 23.2256 74.5273 23.2585 74.6918 23.3242C74.8562 23.39 74.9943 23.4821 75.1193 23.6071C75.2377 23.732 75.3298 23.8833 75.4021 24.0543C75.4679 24.2319 75.5008 24.4292 75.5008 24.6529H73.1461C73.1461 24.9159 73.179 25.1527 73.2448 25.3632C73.3105 25.5737 73.4026 25.7512 73.5144 25.8959C73.6263 26.0406 73.7578 26.1525 73.9091 26.2248C74.0603 26.3037 74.2182 26.3432 74.3826 26.3432C74.4944 26.3432 74.5931 26.33 74.6918 26.3037C74.7904 26.2774 74.8759 26.2314 74.9549 26.1656C75.0338 26.0998 75.1127 26.0143 75.1785 25.9091C75.2443 25.8039 75.31 25.6657 75.3758 25.5079L75.4942 25.5868C75.4547 25.7644 75.4087 25.9354 75.3297 26.0998ZM74.6128 24.0149C74.5602 23.8833 74.4944 23.7847 74.4221 23.7123C74.3432 23.64 74.2642 23.5873 74.1853 23.561C74.1064 23.5347 74.0275 23.5216 73.9683 23.5216C73.8696 23.5216 73.771 23.5413 73.6789 23.5873C73.5868 23.6334 73.5013 23.6926 73.4224 23.7781C73.3434 23.8636 73.2842 23.9688 73.2316 24.0938C73.179 24.2188 73.1461 24.3569 73.133 24.5213H74.6918C74.6918 24.3108 74.6655 24.1464 74.6128 24.0149Z" fill="#E6F0F2"></path></svg> 